<svg width="28" height="31" viewBox="0 0 28 31" fill="none" xmlns="http://www.w3.org/2000/svg">
<path opacity="0.78" fill-rule="evenodd" clip-rule="evenodd" d="M15.3691 9.80931C15.349 9.54881 15.1318 9.34766 14.8706 9.34766H14.4527C14.1959 9.34766 13.9808 9.5423 13.9552 9.7979L13.3336 16.0143L8.91883 18.537C8.76305 18.626 8.6669 18.7917 8.6669 18.9712V19.3597C8.6669 19.6894 8.98039 19.9288 9.29846 19.8421L15.6016 18.123C15.833 18.0599 15.9869 17.8414 15.9685 17.6023L15.3691 9.80931Z" fill="#FEC53D"/>
<path opacity="0.901274" fill-rule="evenodd" clip-rule="evenodd" d="M21.2782 0.984587C21.5423 0.669838 22.0523 0.790308 22.1476 1.18997L23.7811 8.03811C23.8588 8.36376 23.6007 8.67226 23.2664 8.65332L16.2217 8.2541C15.8108 8.23082 15.6024 7.74879 15.867 7.43351L17.6686 5.28637C16.5037 4.88827 15.2684 4.68034 14 4.68034C7.74077 4.68034 2.66667 9.75444 2.66667 16.0137C2.66667 22.2729 7.74077 27.347 14 27.347C20.2592 27.347 25.3333 22.2729 25.3333 16.0137C25.3333 14.9629 25.191 13.9338 24.9136 12.9446L27.4812 12.2244C27.8192 13.4296 28 14.7005 28 16.0137C28 23.7457 21.732 30.0137 14 30.0137C6.26801 30.0137 0 23.7457 0 16.0137C0 8.28169 6.26801 2.01367 14 2.01367C15.945 2.01367 17.7973 2.41029 19.4805 3.12705L21.2782 0.984587Z" fill="#FEC53D"/>
</svg>
