<svg width="184" height="48" viewBox="0 0 184 48" fill="none" xmlns="http://www.w3.org/2000/svg">
<path d="M3.19413 30.1858C3.27366 29.9059 3.34655 29.5594 3.41282 29.1463C3.47909 28.7332 3.53873 28.2201 3.59174 27.607C3.64476 26.994 3.68452 26.2677 3.71103 25.4281C3.73753 24.5752 3.75079 23.5823 3.75079 22.4496V9.43589C3.75079 8.30311 3.73753 7.31692 3.71103 6.47733C3.68452 5.62441 3.64476 4.89144 3.59174 4.2784C3.53873 3.65204 3.47909 3.1323 3.41282 2.71916C3.34655 2.30603 3.27366 1.95953 3.19413 1.67967V1.59971H7.94557V1.67967C7.86605 1.95953 7.78653 2.30603 7.70701 2.71916C7.64074 3.1323 7.5811 3.65204 7.52808 4.2784C7.48832 4.89144 7.44856 5.62441 7.4088 6.47733C7.38229 7.31692 7.36904 8.30311 7.36904 9.43589V22.4496C7.36904 23.5823 7.38229 24.5752 7.4088 25.4281C7.44856 26.2677 7.48832 26.994 7.52808 27.607C7.5811 28.2201 7.64074 28.7332 7.70701 29.1463C7.78653 29.5594 7.86605 29.9059 7.94557 30.1858V30.2657H3.19413V30.1858Z" fill="white"/>
<path d="M23.4259 1.59971L43.9028 23.509V9.43589C43.9028 8.30311 43.8895 7.31692 43.863 6.47733C43.8365 5.62441 43.7967 4.89144 43.7437 4.2784C43.6907 3.65204 43.6244 3.1323 43.5449 2.71916C43.4787 2.30603 43.4058 1.95953 43.3262 1.67967V1.59971H46.865V1.67967C46.7854 1.95953 46.7125 2.30603 46.6463 2.71916C46.58 3.1323 46.5204 3.65204 46.4674 4.2784C46.4143 4.89144 46.3746 5.62441 46.3481 6.47733C46.3216 7.31692 46.3083 8.30311 46.3083 9.43589V30.6656H45.6125L25.1356 8.77621V22.4496C25.1356 23.5823 25.1488 24.5752 25.1753 25.4281C25.2018 26.2677 25.2416 26.994 25.2946 27.607C25.3476 28.2201 25.4073 28.7332 25.4735 29.1463C25.5398 29.5594 25.6127 29.9059 25.6922 30.1858V30.2657H22.1535V30.1858C22.233 29.9059 22.3059 29.5594 22.3722 29.1463C22.4517 28.7332 22.518 28.2201 22.571 27.607C22.624 26.994 22.6638 26.2677 22.6903 25.4281C22.7168 24.5752 22.73 23.5823 22.73 22.4496V9.43589C22.73 8.30311 22.7168 7.31692 22.6903 6.47733C22.6638 5.62441 22.624 4.89144 22.571 4.2784C22.518 3.65204 22.4517 3.1323 22.3722 2.71916C22.3059 2.30603 22.233 1.95953 22.1535 1.67967V1.59971H23.4259Z" fill="white"/>
<path d="M72.7825 6.15749H72.3451C72.2391 5.85097 72.0668 5.50447 71.8282 5.11799C71.6029 4.73152 71.2981 4.37169 70.9137 4.03852C70.5426 3.69202 70.0854 3.4055 69.542 3.17894C69.0118 2.95238 68.3823 2.8391 67.6533 2.8391C67.0039 2.8391 66.4274 2.93906 65.9237 3.13896C65.4201 3.33886 64.996 3.61872 64.6514 3.97855C64.32 4.33837 64.0682 4.76483 63.8959 5.25793C63.7236 5.75102 63.6375 6.29742 63.6375 6.89713C63.6375 7.85666 63.9026 8.77621 64.4327 9.65579C64.9761 10.522 65.652 11.3816 66.4605 12.2345C67.269 13.0874 68.1437 13.9404 69.0847 14.7933C70.0257 15.6462 70.9005 16.5324 71.709 17.452C72.5174 18.3715 73.1867 19.3377 73.7169 20.3506C74.2603 21.3501 74.532 22.4296 74.532 23.589C74.532 24.4552 74.3796 25.3282 74.0747 26.2077C73.7832 27.074 73.3259 27.8536 72.703 28.5466C72.0801 29.2396 71.2782 29.806 70.2974 30.2458C69.3167 30.6722 68.1504 30.8854 66.7985 30.8854C66.043 30.8854 65.3207 30.8122 64.6315 30.6656C63.9556 30.5323 63.326 30.3657 62.7429 30.1658C62.173 29.9526 61.6561 29.726 61.1922 29.4861C60.7416 29.2462 60.3704 29.0264 60.0789 28.8265L60.5361 24.4086H61.0331C61.1789 25.035 61.4175 25.6347 61.7488 26.2077C62.0802 26.7675 62.4844 27.2672 62.9615 27.707C63.4519 28.1335 64.0086 28.48 64.6315 28.7465C65.2544 28.9997 65.937 29.1263 66.6792 29.1263C67.3551 29.1263 67.9582 29.0264 68.4883 28.8265C69.0317 28.6132 69.4956 28.3267 69.88 27.9669C70.2643 27.5937 70.5559 27.1539 70.7547 26.6475C70.9668 26.1411 71.0728 25.588 71.0728 24.9883C71.0728 24.1487 70.9204 23.3758 70.6155 22.6694C70.3107 21.9498 69.9065 21.2701 69.4028 20.6304C68.9124 19.9908 68.3492 19.3711 67.713 18.7713C67.0901 18.1716 66.4473 17.5719 65.7846 16.9722C65.1219 16.3592 64.4725 15.7328 63.8363 15.0931C63.2134 14.4534 62.6501 13.7738 62.1464 13.0541C61.6561 12.3212 61.2584 11.5415 60.9536 10.7153C60.6488 9.87568 60.4964 8.95613 60.4964 7.95661C60.4964 6.90379 60.6952 5.95759 61.0928 5.11799C61.5036 4.26508 62.0404 3.53876 62.7031 2.93906C63.379 2.33935 64.1411 1.87957 64.9894 1.55973C65.8376 1.23988 66.7123 1.07996 67.6136 1.07996C68.2763 1.07996 68.8859 1.13327 69.4426 1.23988C69.9992 1.3465 70.4963 1.4731 70.9336 1.6197C71.3842 1.76629 71.7752 1.91289 72.1066 2.05948C72.4379 2.20608 72.7096 2.32602 72.9217 2.41931L72.7825 6.15749Z" fill="white"/>
<path d="M108.302 9.43589C108.302 8.30311 108.289 7.31692 108.263 6.47733C108.236 5.62441 108.196 4.89144 108.143 4.2784C108.09 3.65204 108.031 3.1323 107.964 2.71916C107.898 2.30603 107.825 1.95953 107.746 1.67967V1.59971H111.284V1.67967C111.205 1.95953 111.125 2.30603 111.046 2.71916C110.98 3.1323 110.92 3.65204 110.867 4.2784C110.827 4.89144 110.787 5.62441 110.748 6.47733C110.721 7.31692 110.708 8.30311 110.708 9.43589V20.2306C110.708 22.1364 110.436 23.7622 109.893 25.1083C109.349 26.4543 108.594 27.5604 107.626 28.4266C106.659 29.2796 105.499 29.8993 104.147 30.2857C102.795 30.6855 101.318 30.8854 99.714 30.8854C98.1103 30.8854 96.6126 30.6989 95.221 30.3257C93.8426 29.9526 92.6365 29.3529 91.6027 28.5266C90.5822 27.687 89.7803 26.6075 89.1972 25.2882C88.614 23.9555 88.3224 22.3363 88.3224 20.4305V9.43589C88.3224 8.30311 88.3092 7.31692 88.2827 6.47733C88.2562 5.62441 88.2164 4.89144 88.1634 4.2784C88.1104 3.65204 88.0441 3.1323 87.9646 2.71916C87.8983 2.30603 87.8254 1.95953 87.7459 1.67967V1.59971H92.5172V1.67967C92.4377 1.95953 92.3582 2.30603 92.2787 2.71916C92.2124 3.1323 92.1527 3.65204 92.0997 4.2784C92.0467 4.89144 92.007 5.62441 91.9804 6.47733C91.9539 7.31692 91.9407 8.30311 91.9407 9.43589V20.6504C91.9407 22.2363 92.1726 23.549 92.6365 24.5885C93.1136 25.6147 93.7366 26.4343 94.5053 27.0473C95.274 27.647 96.1487 28.0668 97.1295 28.3067C98.1103 28.5466 99.1109 28.6665 100.131 28.6665C101.152 28.6665 102.153 28.5466 103.133 28.3067C104.114 28.0668 104.982 27.647 105.738 27.0473C106.506 26.4343 107.123 25.6147 107.587 24.5885C108.064 23.549 108.302 22.2363 108.302 20.6504V9.43589Z" fill="white"/>
<path d="M129.488 22.4496C129.488 23.5823 129.502 24.5752 129.528 25.4281C129.568 26.2677 129.608 26.994 129.647 27.607C129.7 28.2201 129.76 28.7332 129.826 29.1463C129.906 29.5594 129.985 29.9059 130.065 30.1858V30.2657H125.294V30.1858C125.373 29.9059 125.446 29.5594 125.512 29.1463C125.592 28.7332 125.651 28.2201 125.691 27.607C125.744 26.994 125.784 26.2677 125.81 25.4281C125.85 24.5885 125.87 23.5957 125.87 22.4496V9.43589C125.87 8.30311 125.85 7.31692 125.81 6.47733C125.784 5.62441 125.744 4.89144 125.691 4.2784C125.651 3.66537 125.592 3.15229 125.512 2.73915C125.446 2.31269 125.373 1.95953 125.294 1.67967V1.59971L126.129 1.67967C126.38 1.70632 126.659 1.72631 126.964 1.73964C127.282 1.73964 127.606 1.73964 127.938 1.73964C128.455 1.73964 129.15 1.67967 130.025 1.55973C130.913 1.42646 132.04 1.35982 133.405 1.35982C134.677 1.35982 135.85 1.53307 136.924 1.87957C138.01 2.22607 138.951 2.73249 139.747 3.39883C140.542 4.06517 141.158 4.88478 141.596 5.85763C142.046 6.81717 142.271 7.90997 142.271 9.13604C142.271 10.0956 142.146 10.9885 141.894 11.8147C141.655 12.6277 141.311 13.3673 140.86 14.0337C140.423 14.7 139.892 15.293 139.27 15.8128C138.647 16.3192 137.951 16.7457 137.182 17.0922L144.16 26.9474C144.505 27.4405 144.823 27.8669 145.114 28.2267C145.419 28.5866 145.704 28.8997 145.969 29.1663C146.248 29.4195 146.513 29.6327 146.764 29.806C147.016 29.9659 147.275 30.0925 147.54 30.1858V30.2657H141.794C141.755 30.0125 141.622 29.6794 141.397 29.2662C141.185 28.8398 140.933 28.42 140.641 28.0068L133.604 18.0317C133.299 18.0584 132.994 18.085 132.689 18.1117C132.384 18.125 132.073 18.1317 131.755 18.1317C131.384 18.1317 131.006 18.1183 130.622 18.0917C130.25 18.065 129.873 18.0184 129.488 17.9517V22.4496ZM129.488 16.3925C129.846 16.4725 130.211 16.5324 130.582 16.5724C130.953 16.5991 131.311 16.6124 131.655 16.6124C132.649 16.6124 133.557 16.4658 134.379 16.1726C135.201 15.8661 135.896 15.4063 136.466 14.7933C137.05 14.1802 137.5 13.4206 137.818 12.5144C138.136 11.5948 138.295 10.522 138.295 9.29596C138.295 8.29645 138.183 7.39022 137.957 6.57728C137.732 5.76435 137.394 5.07801 136.944 4.51829C136.506 3.94523 135.949 3.50545 135.274 3.19893C134.598 2.87909 133.809 2.71916 132.908 2.71916C131.993 2.71916 131.264 2.76581 130.721 2.85909C130.178 2.95238 129.767 3.05233 129.488 3.15895V16.3925Z" fill="white"/>
<path d="M177.553 30.2657V30.1858C177.579 30.1192 177.599 30.0192 177.612 29.8859C177.626 29.7527 177.632 29.6327 177.632 29.5261C177.632 29.113 177.573 28.6599 177.453 28.1668C177.347 27.6604 177.135 27.034 176.817 26.2877L174.412 20.8503C173.669 20.8237 172.682 20.8104 171.449 20.8104C170.217 20.8104 168.885 20.8104 167.453 20.8104C166.406 20.8104 165.393 20.8104 164.412 20.8104C163.444 20.8104 162.569 20.8237 161.788 20.8503L159.501 26.1278C159.302 26.6209 159.09 27.1606 158.865 27.747C158.64 28.3334 158.527 28.9264 158.527 29.5261C158.527 29.6994 158.54 29.846 158.567 29.9659C158.593 30.0725 158.62 30.1458 158.646 30.1858V30.2657H154.591V30.1858C154.829 29.9326 155.128 29.4861 155.485 28.8464C155.843 28.1934 156.234 27.3805 156.658 26.4076L168.05 1H169.64L180.435 25.4281C180.687 26.0012 180.946 26.5609 181.211 27.1073C181.489 27.6404 181.748 28.1201 181.986 28.5466C182.225 28.973 182.437 29.3329 182.622 29.6261C182.808 29.9193 182.934 30.1058 183 30.1858V30.2657H177.553ZM164.67 19.0912C165.439 19.0912 166.227 19.0912 167.036 19.0912C167.844 19.0779 168.633 19.0712 169.402 19.0712C170.184 19.0579 170.933 19.0512 171.648 19.0512C172.364 19.0379 173.013 19.0246 173.597 19.0112L168.01 6.31741L162.523 19.0912H164.67Z" fill="white"/>
<path d="M65.9904 39.0167H66.2754L66.367 41.3707H65.9904C65.8411 40.7703 65.5527 40.2995 65.1252 39.9583C64.6977 39.6171 64.1819 39.4466 63.578 39.4466C63.164 39.4466 62.7942 39.5284 62.4685 39.6922C62.1428 39.856 61.8679 40.0914 61.644 40.3984C61.4201 40.7055 61.247 41.0807 61.1249 41.5243C61.0095 41.9678 60.9519 42.4693 60.9519 43.0288C60.9519 44.1274 61.1792 44.9735 61.6338 45.5671C62.0885 46.1539 62.7467 46.4473 63.6085 46.4473C64.9182 46.4473 65.7596 45.7479 66.1329 44.3491H66.5502V46.8977H66.1939L65.9598 46.0891C65.2473 46.6964 64.3855 47 63.3744 47C62.7976 47 62.2751 46.9079 61.8069 46.7237C61.3454 46.5394 60.9485 46.2801 60.6159 45.9458C60.2902 45.6046 60.0358 45.1918 59.8525 44.7074C59.6761 44.2229 59.5879 43.6839 59.5879 43.0902C59.5879 42.4693 59.6829 41.903 59.8729 41.3912C60.0629 40.8795 60.3275 40.4394 60.6668 40.0709C61.0129 39.7024 61.4235 39.4193 61.8985 39.2214C62.3803 39.0167 62.9096 38.9143 63.4864 38.9143C63.8935 38.9143 64.2769 38.9723 64.6366 39.0883C64.9962 39.2043 65.3864 39.392 65.8071 39.6513L65.9904 39.0167Z" fill="white"/>
<path d="M72.8009 38.9143C73.3981 38.9143 73.9545 39.0201 74.4702 39.2316C74.986 39.4431 75.4338 39.7331 75.8138 40.1016C76.1939 40.4701 76.4924 40.9033 76.7096 41.4014C76.9267 41.8996 77.0353 42.4386 77.0353 43.0186C77.0353 43.5713 76.9233 44.0898 76.6994 44.5743C76.4823 45.0588 76.1837 45.4818 75.8037 45.8434C75.4237 46.1983 74.9758 46.4814 74.4601 46.693C73.9443 46.8977 73.3913 47 72.8009 47C72.2105 47 71.6575 46.8977 71.1418 46.693C70.626 46.4814 70.1782 46.1983 69.7982 45.8434C69.4182 45.4818 69.1162 45.0588 68.8923 44.5743C68.6751 44.0898 68.5665 43.5713 68.5665 43.0186C68.5665 42.4386 68.6751 41.8996 68.8923 41.4014C69.1094 40.9033 69.408 40.4701 69.788 40.1016C70.168 39.7331 70.6159 39.4431 71.1316 39.2316C71.6473 39.0201 72.2038 38.9143 72.8009 38.9143ZM72.8009 46.4371C73.2488 46.4371 73.6492 46.3586 74.002 46.2017C74.3617 46.0447 74.667 45.8196 74.9181 45.5262C75.176 45.2328 75.3728 44.8779 75.5085 44.4617C75.6442 44.0387 75.7121 43.5679 75.7121 43.0493C75.7121 42.5034 75.6442 42.0121 75.5085 41.5754C75.3728 41.1319 75.1794 40.7566 74.9283 40.4496C74.6772 40.1357 74.3718 39.8969 74.0122 39.7331C73.6525 39.5626 73.2488 39.4773 72.8009 39.4773C72.3531 39.4773 71.9493 39.5626 71.5896 39.7331C71.23 39.8969 70.9246 40.1357 70.6735 40.4496C70.4225 40.7566 70.2291 41.1319 70.0934 41.5754C69.9576 42.0121 69.8898 42.5034 69.8898 43.0493C69.8898 43.5679 69.9576 44.0387 70.0934 44.4617C70.2291 44.8779 70.4225 45.2328 70.6735 45.5262C70.9246 45.8196 71.23 46.0447 71.5896 46.2017C71.9493 46.3586 72.3531 46.4371 72.8009 46.4371Z" fill="white"/>
<path d="M85.4016 47L80.5666 40.5929H80.5259V44.9632C80.5259 45.3044 80.5361 45.5739 80.5564 45.7718C80.5836 45.9697 80.6311 46.1232 80.6989 46.2324C80.7736 46.3415 80.8754 46.4132 81.0043 46.4473C81.14 46.4814 81.3165 46.5019 81.5336 46.5087V46.8977H78.7955V46.5087C79.033 46.5019 79.223 46.4814 79.3655 46.4473C79.5148 46.4064 79.6302 46.3347 79.7116 46.2324C79.793 46.13 79.8473 45.9867 79.8745 45.8025C79.9016 45.6115 79.9152 45.3556 79.9152 45.0349V40.8795C79.9152 40.5929 79.9016 40.3575 79.8745 40.1732C79.8541 39.9822 79.8066 39.8321 79.7319 39.7229C79.6641 39.6137 79.5623 39.5387 79.4266 39.4977C79.2909 39.45 79.1144 39.4193 78.8973 39.4056V39.0167H80.9127L85.3608 44.9837H85.4016V40.9511C85.4016 40.6168 85.388 40.3507 85.3608 40.1528C85.3405 39.9481 85.293 39.7911 85.2183 39.682C85.1505 39.5728 85.0487 39.5011 84.913 39.467C84.784 39.4329 84.611 39.4124 84.3938 39.4056V39.0167H87.132V39.4056C86.8944 39.4124 86.701 39.4363 86.5518 39.4773C86.4092 39.5114 86.2973 39.5796 86.2159 39.682C86.1344 39.7843 86.0801 39.931 86.053 40.1221C86.0258 40.3131 86.0123 40.5656 86.0123 40.8795V47H85.4016Z" fill="white"/>
<path d="M95.4346 47L90.5996 40.5929H90.5589V44.9632C90.5589 45.3044 90.5691 45.5739 90.5895 45.7718C90.6166 45.9697 90.6641 46.1232 90.732 46.2324C90.8066 46.3415 90.9084 46.4132 91.0373 46.4473C91.173 46.4814 91.3495 46.5019 91.5666 46.5087V46.8977H88.8285V46.5087C89.066 46.5019 89.256 46.4814 89.3985 46.4473C89.5478 46.4064 89.6632 46.3347 89.7446 46.2324C89.826 46.13 89.8803 45.9867 89.9075 45.8025C89.9346 45.6115 89.9482 45.3556 89.9482 45.0349V40.8795C89.9482 40.5929 89.9346 40.3575 89.9075 40.1732C89.8871 39.9822 89.8396 39.8321 89.765 39.7229C89.6971 39.6137 89.5953 39.5387 89.4596 39.4977C89.3239 39.45 89.1475 39.4193 88.9303 39.4056V39.0167H90.9457L95.3939 44.9837H95.4346V40.9511C95.4346 40.6168 95.421 40.3507 95.3939 40.1528C95.3735 39.9481 95.326 39.7911 95.2514 39.682C95.1835 39.5728 95.0817 39.5011 94.946 39.467C94.8171 39.4329 94.644 39.4124 94.4269 39.4056V39.0167H97.165V39.4056C96.9275 39.4124 96.7341 39.4363 96.5848 39.4773C96.4423 39.5114 96.3303 39.5796 96.2489 39.682C96.1674 39.7843 96.1132 39.931 96.086 40.1221C96.0589 40.3131 96.0453 40.5656 96.0453 40.8795V47H95.4346Z" fill="white"/>
<path d="M101.05 42.5682C101.416 42.5682 101.722 42.5478 101.966 42.5068C102.217 42.4591 102.414 42.3874 102.556 42.2919C102.706 42.1964 102.811 42.0735 102.872 41.9234C102.94 41.7733 102.974 41.5959 102.974 41.3912H103.33V44.1854H102.974C102.974 43.9807 102.943 43.8033 102.882 43.6531C102.828 43.503 102.726 43.3802 102.577 43.2847C102.434 43.1823 102.238 43.1073 101.986 43.0595C101.742 43.0049 101.43 42.9776 101.05 42.9776V45.2908C101.05 45.5159 101.077 45.7036 101.131 45.8537C101.186 45.997 101.277 46.1164 101.406 46.2119C101.542 46.3006 101.718 46.3654 101.936 46.4064C102.153 46.4405 102.421 46.4575 102.74 46.4575C103.099 46.4575 103.405 46.4337 103.656 46.3859C103.907 46.3313 104.117 46.2426 104.287 46.1198C104.457 45.997 104.592 45.8366 104.694 45.6387C104.796 45.434 104.881 45.1816 104.948 44.8814H105.335L105.183 46.8977H98.8615V46.5087C99.0991 46.5019 99.2891 46.4814 99.4316 46.4473C99.5808 46.4132 99.6962 46.3552 99.7776 46.2733C99.8591 46.1914 99.9134 46.0754 99.9405 45.9253C99.9676 45.7752 99.9812 45.5807 99.9812 45.3419V40.5724C99.9812 40.3336 99.9676 40.1425 99.9405 39.9992C99.9201 39.8491 99.8726 39.7331 99.798 39.6513C99.7301 39.5626 99.6283 39.5046 99.4926 39.4773C99.3569 39.4431 99.1805 39.4193 98.9633 39.4056V39.0167H104.847L104.938 40.8181H104.582C104.541 40.5451 104.473 40.3234 104.378 40.1528C104.29 39.9754 104.165 39.8355 104.002 39.7331C103.846 39.6308 103.646 39.5591 103.401 39.5182C103.157 39.4773 102.862 39.4568 102.516 39.4568H101.223C101.108 39.4568 101.05 39.5148 101.05 39.6308V42.5682Z" fill="white"/>
<path d="M113.651 39.0167H113.936L114.027 41.3707H113.651C113.501 40.7703 113.213 40.2995 112.785 39.9583C112.358 39.6171 111.842 39.4466 111.238 39.4466C110.824 39.4466 110.454 39.5284 110.129 39.6922C109.803 39.856 109.528 40.0914 109.304 40.3984C109.08 40.7055 108.907 41.0807 108.785 41.5243C108.67 41.9678 108.612 42.4693 108.612 43.0288C108.612 44.1274 108.839 44.9735 109.294 45.5671C109.749 46.1539 110.407 46.4473 111.269 46.4473C112.578 46.4473 113.42 45.7479 113.793 44.3491H114.21V46.8977H113.854L113.62 46.0891C112.907 46.6964 112.046 47 111.035 47C110.458 47 109.935 46.9079 109.467 46.7237C109.006 46.5394 108.609 46.2801 108.276 45.9458C107.95 45.6046 107.696 45.1918 107.513 44.7074C107.336 44.2229 107.248 43.6839 107.248 43.0902C107.248 42.4693 107.343 41.903 107.533 41.3912C107.723 40.8795 107.988 40.4394 108.327 40.0709C108.673 39.7024 109.084 39.4193 109.559 39.2214C110.04 39.0167 110.57 38.9143 111.147 38.9143C111.554 38.9143 111.937 38.9723 112.297 39.0883C112.656 39.2043 113.047 39.392 113.467 39.6513L113.651 39.0167Z" fill="white"/>
<path d="M123.647 40.9716H123.23C123.209 40.6782 123.162 40.4325 123.087 40.2347C123.013 40.0368 122.904 39.8833 122.762 39.7741C122.626 39.6581 122.453 39.5762 122.242 39.5284C122.032 39.4807 121.781 39.4568 121.489 39.4568C121.238 39.4568 121.035 39.4636 120.878 39.4773C120.729 39.4841 120.614 39.5011 120.532 39.5284C120.451 39.5557 120.397 39.5899 120.369 39.6308C120.349 39.6649 120.339 39.7127 120.339 39.7741V45.2498C120.339 45.4682 120.353 45.6558 120.38 45.8127C120.414 45.9697 120.475 46.0993 120.563 46.2017C120.658 46.2972 120.79 46.3723 120.96 46.4268C121.136 46.4746 121.367 46.5019 121.652 46.5087V46.8977H117.804V46.5087C118.089 46.5019 118.32 46.4746 118.497 46.4268C118.673 46.3723 118.805 46.2972 118.894 46.2017C118.989 46.0993 119.05 45.9697 119.077 45.8127C119.111 45.6558 119.128 45.4682 119.128 45.2498V39.7741C119.128 39.7127 119.114 39.6649 119.087 39.6308C119.067 39.5899 119.019 39.5557 118.944 39.5284C118.877 39.5011 118.778 39.4841 118.649 39.4773C118.52 39.4636 118.347 39.4568 118.13 39.4568C117.866 39.4568 117.618 39.467 117.387 39.4875C117.163 39.508 116.966 39.5694 116.797 39.6717C116.634 39.7673 116.502 39.9174 116.4 40.1221C116.298 40.3268 116.244 40.6099 116.237 40.9716H115.86V39.0167H123.545L123.647 40.9716Z" fill="white"/>
<path d="M55.1353 43.2727H0M182.795 43.2727H127.659M3.19413 30.1858C3.27366 29.9059 3.34655 29.5594 3.41282 29.1463C3.47909 28.7332 3.53873 28.2201 3.59174 27.607C3.64476 26.994 3.68452 26.2677 3.71103 25.4281C3.73753 24.5752 3.75079 23.5823 3.75079 22.4496V9.43589C3.75079 8.30311 3.73753 7.31692 3.71103 6.47733C3.68452 5.62441 3.64476 4.89144 3.59174 4.2784C3.53873 3.65204 3.47909 3.1323 3.41282 2.71916C3.34655 2.30603 3.27366 1.95953 3.19413 1.67967V1.59971H7.94557V1.67967C7.86605 1.95953 7.78653 2.30603 7.70701 2.71916C7.64074 3.1323 7.5811 3.65204 7.52808 4.2784C7.48832 4.89144 7.44856 5.62441 7.4088 6.47733C7.38229 7.31692 7.36904 8.30311 7.36904 9.43589V22.4496C7.36904 23.5823 7.38229 24.5752 7.4088 25.4281C7.44856 26.2677 7.48832 26.994 7.52808 27.607C7.5811 28.2201 7.64074 28.7332 7.70701 29.1463C7.78653 29.5594 7.86605 29.9059 7.94557 30.1858V30.2657H3.19413V30.1858ZM23.4259 1.59971L43.9028 23.509V9.43589C43.9028 8.30311 43.8895 7.31692 43.863 6.47733C43.8365 5.62441 43.7967 4.89144 43.7437 4.2784C43.6907 3.65204 43.6244 3.1323 43.5449 2.71916C43.4787 2.30603 43.4058 1.95953 43.3262 1.67967V1.59971H46.865V1.67967C46.7854 1.95953 46.7125 2.30603 46.6463 2.71916C46.58 3.1323 46.5204 3.65204 46.4674 4.2784C46.4143 4.89144 46.3746 5.62441 46.3481 6.47733C46.3216 7.31692 46.3083 8.30311 46.3083 9.43589V30.6656H45.6125L25.1356 8.77621V22.4496C25.1356 23.5823 25.1488 24.5752 25.1753 25.4281C25.2018 26.2677 25.2416 26.994 25.2946 27.607C25.3476 28.2201 25.4073 28.7332 25.4735 29.1463C25.5398 29.5594 25.6127 29.9059 25.6922 30.1858V30.2657H22.1535V30.1858C22.233 29.9059 22.3059 29.5594 22.3722 29.1463C22.4517 28.7332 22.518 28.2201 22.571 27.607C22.624 26.994 22.6638 26.2677 22.6903 25.4281C22.7168 24.5752 22.73 23.5823 22.73 22.4496V9.43589C22.73 8.30311 22.7168 7.31692 22.6903 6.47733C22.6638 5.62441 22.624 4.89144 22.571 4.2784C22.518 3.65204 22.4517 3.1323 22.3722 2.71916C22.3059 2.30603 22.233 1.95953 22.1535 1.67967V1.59971H23.4259ZM72.7825 6.15749H72.3451C72.2391 5.85097 72.0668 5.50447 71.8282 5.11799C71.6029 4.73152 71.2981 4.37169 70.9137 4.03852C70.5426 3.69202 70.0854 3.4055 69.542 3.17894C69.0118 2.95238 68.3823 2.8391 67.6533 2.8391C67.0039 2.8391 66.4274 2.93906 65.9237 3.13896C65.4201 3.33886 64.996 3.61872 64.6514 3.97855C64.32 4.33837 64.0682 4.76483 63.8959 5.25793C63.7236 5.75102 63.6375 6.29742 63.6375 6.89713C63.6375 7.85666 63.9026 8.77621 64.4327 9.65579C64.9761 10.522 65.652 11.3816 66.4605 12.2345C67.269 13.0874 68.1437 13.9404 69.0847 14.7933C70.0257 15.6462 70.9005 16.5324 71.709 17.452C72.5174 18.3715 73.1867 19.3377 73.7169 20.3506C74.2603 21.3501 74.532 22.4296 74.532 23.589C74.532 24.4552 74.3796 25.3282 74.0747 26.2077C73.7832 27.074 73.3259 27.8536 72.703 28.5466C72.0801 29.2396 71.2782 29.806 70.2974 30.2458C69.3167 30.6722 68.1504 30.8854 66.7985 30.8854C66.043 30.8854 65.3207 30.8122 64.6315 30.6656C63.9556 30.5323 63.326 30.3657 62.7429 30.1658C62.1729 29.9526 61.6561 29.726 61.1922 29.4861C60.7416 29.2462 60.3705 29.0264 60.0789 28.8265L60.5361 24.4086H61.0331C61.1789 25.035 61.4175 25.6347 61.7488 26.2077C62.0802 26.7675 62.4844 27.2672 62.9615 27.707C63.4519 28.1335 64.0086 28.48 64.6315 28.7465C65.2544 28.9997 65.937 29.1263 66.6792 29.1263C67.3551 29.1263 67.9582 29.0264 68.4883 28.8265C69.0317 28.6132 69.4956 28.3267 69.88 27.9669C70.2643 27.5937 70.5559 27.1539 70.7547 26.6475C70.9668 26.1411 71.0728 25.588 71.0728 24.9883C71.0728 24.1487 70.9204 23.3758 70.6155 22.6694C70.3107 21.9498 69.9065 21.2701 69.4028 20.6304C68.9124 19.9908 68.3492 19.3711 67.713 18.7713C67.0901 18.1716 66.4473 17.5719 65.7846 16.9722C65.1219 16.3592 64.4725 15.7328 63.8363 15.0931C63.2134 14.4534 62.6501 13.7738 62.1464 13.0541C61.6561 12.3212 61.2584 11.5415 60.9536 10.7153C60.6488 9.87568 60.4964 8.95613 60.4964 7.95661C60.4964 6.90379 60.6952 5.95759 61.0928 5.11799C61.5036 4.26508 62.0404 3.53876 62.7031 2.93906C63.379 2.33935 64.1411 1.87957 64.9894 1.55973C65.8376 1.23988 66.7123 1.07996 67.6136 1.07996C68.2763 1.07996 68.8859 1.13327 69.4426 1.23988C69.9992 1.3465 70.4963 1.4731 70.9336 1.6197C71.3842 1.76629 71.7752 1.91289 72.1066 2.05948C72.4379 2.20608 72.7096 2.32602 72.9217 2.41931L72.7825 6.15749ZM108.302 9.43589C108.302 8.30311 108.289 7.31692 108.263 6.47733C108.236 5.62441 108.196 4.89144 108.143 4.2784C108.09 3.65204 108.031 3.1323 107.964 2.71916C107.898 2.30603 107.825 1.95953 107.746 1.67967V1.59971H111.284V1.67967C111.205 1.95953 111.125 2.30603 111.046 2.71916C110.98 3.1323 110.92 3.65204 110.867 4.2784C110.827 4.89144 110.787 5.62441 110.748 6.47733C110.721 7.31692 110.708 8.30311 110.708 9.43589V20.2306C110.708 22.1364 110.436 23.7622 109.893 25.1083C109.349 26.4543 108.594 27.5604 107.626 28.4266C106.659 29.2796 105.499 29.8993 104.147 30.2857C102.795 30.6855 101.318 30.8854 99.714 30.8854C98.1103 30.8854 96.6126 30.6989 95.221 30.3257C93.8426 29.9526 92.6365 29.3529 91.6027 28.5266C90.5822 27.687 89.7803 26.6075 89.1972 25.2882C88.614 23.9555 88.3224 22.3363 88.3224 20.4305V9.43589C88.3224 8.30311 88.3092 7.31692 88.2827 6.47733C88.2562 5.62441 88.2164 4.89144 88.1634 4.2784C88.1104 3.65204 88.0441 3.1323 87.9646 2.71916C87.8983 2.30603 87.8254 1.95953 87.7459 1.67967V1.59971H92.5172V1.67967C92.4377 1.95953 92.3582 2.30603 92.2787 2.71916C92.2124 3.1323 92.1527 3.65204 92.0997 4.2784C92.0467 4.89144 92.007 5.62441 91.9804 6.47733C91.9539 7.31692 91.9407 8.30311 91.9407 9.43589V20.6504C91.9407 22.2363 92.1726 23.549 92.6365 24.5885C93.1136 25.6147 93.7366 26.4343 94.5053 27.0473C95.274 27.647 96.1487 28.0668 97.1295 28.3067C98.1103 28.5466 99.1109 28.6665 100.131 28.6665C101.152 28.6665 102.153 28.5466 103.133 28.3067C104.114 28.0668 104.982 27.647 105.738 27.0473C106.506 26.4343 107.123 25.6147 107.587 24.5885C108.064 23.549 108.302 22.2363 108.302 20.6504V9.43589ZM129.488 22.4496C129.488 23.5823 129.502 24.5752 129.528 25.4281C129.568 26.2677 129.608 26.994 129.647 27.607C129.7 28.2201 129.76 28.7332 129.826 29.1463C129.906 29.5594 129.985 29.9059 130.065 30.1858V30.2657H125.294V30.1858C125.373 29.9059 125.446 29.5594 125.512 29.1463C125.592 28.7332 125.651 28.2201 125.691 27.607C125.744 26.994 125.784 26.2677 125.81 25.4281C125.85 24.5885 125.87 23.5957 125.87 22.4496V9.43589C125.87 8.30311 125.85 7.31692 125.81 6.47733C125.784 5.62441 125.744 4.89144 125.691 4.2784C125.651 3.66537 125.592 3.15229 125.512 2.73915C125.446 2.31269 125.373 1.95953 125.294 1.67967V1.59971L126.129 1.67967C126.38 1.70632 126.659 1.72631 126.963 1.73964C127.282 1.73964 127.606 1.73964 127.938 1.73964C128.455 1.73964 129.15 1.67967 130.025 1.55973C130.913 1.42646 132.04 1.35982 133.405 1.35982C134.677 1.35982 135.85 1.53307 136.924 1.87957C138.01 2.22607 138.951 2.73249 139.747 3.39883C140.542 4.06517 141.158 4.88478 141.596 5.85763C142.046 6.81717 142.271 7.90997 142.271 9.13604C142.271 10.0956 142.146 10.9885 141.894 11.8147C141.655 12.6277 141.311 13.3673 140.86 14.0337C140.423 14.7 139.892 15.293 139.27 15.8128C138.647 16.3192 137.951 16.7457 137.182 17.0922L144.16 26.9474C144.505 27.4405 144.823 27.8669 145.114 28.2267C145.419 28.5866 145.704 28.8997 145.969 29.1663C146.248 29.4195 146.513 29.6327 146.764 29.806C147.016 29.9659 147.275 30.0925 147.54 30.1858V30.2657H141.794C141.755 30.0125 141.622 29.6794 141.397 29.2662C141.185 28.8398 140.933 28.42 140.641 28.0068L133.604 18.0317C133.299 18.0584 132.994 18.085 132.689 18.1117C132.384 18.125 132.073 18.1317 131.755 18.1317C131.384 18.1317 131.006 18.1183 130.622 18.0917C130.25 18.065 129.873 18.0184 129.488 17.9517V22.4496ZM129.488 16.3925C129.846 16.4725 130.211 16.5324 130.582 16.5724C130.953 16.5991 131.311 16.6124 131.655 16.6124C132.649 16.6124 133.557 16.4658 134.379 16.1726C135.201 15.8661 135.896 15.4063 136.466 14.7933C137.05 14.1802 137.5 13.4206 137.818 12.5144C138.136 11.5948 138.295 10.522 138.295 9.29596C138.295 8.29645 138.183 7.39022 137.957 6.57728C137.732 5.76435 137.394 5.07801 136.944 4.51829C136.506 3.94523 135.949 3.50545 135.274 3.19893C134.598 2.87909 133.809 2.71916 132.908 2.71916C131.993 2.71916 131.264 2.76581 130.721 2.85909C130.178 2.95238 129.767 3.05233 129.488 3.15895V16.3925ZM177.553 30.2657V30.1858C177.579 30.1192 177.599 30.0192 177.612 29.8859C177.626 29.7527 177.632 29.6327 177.632 29.5261C177.632 29.113 177.573 28.6599 177.453 28.1668C177.347 27.6604 177.135 27.034 176.817 26.2877L174.412 20.8503C173.669 20.8237 172.682 20.8104 171.449 20.8104C170.217 20.8104 168.885 20.8104 167.453 20.8104C166.406 20.8104 165.393 20.8104 164.412 20.8104C163.444 20.8104 162.569 20.8237 161.788 20.8503L159.501 26.1278C159.302 26.6209 159.09 27.1606 158.865 27.747C158.64 28.3334 158.527 28.9264 158.527 29.5261C158.527 29.6994 158.54 29.846 158.567 29.9659C158.593 30.0725 158.62 30.1458 158.646 30.1858V30.2657H154.591V30.1858C154.829 29.9326 155.128 29.4861 155.485 28.8464C155.843 28.1934 156.234 27.3805 156.658 26.4076L168.05 1H169.64L180.435 25.4281C180.687 26.0012 180.946 26.5609 181.211 27.1073C181.489 27.6404 181.748 28.1201 181.986 28.5466C182.225 28.973 182.437 29.3329 182.622 29.6261C182.808 29.9193 182.934 30.1058 183 30.1858V30.2657H177.553ZM164.67 19.0912C165.439 19.0912 166.227 19.0912 167.036 19.0912C167.844 19.0779 168.633 19.0712 169.402 19.0712C170.184 19.0579 170.933 19.0512 171.648 19.0512C172.364 19.0379 173.013 19.0246 173.597 19.0112L168.01 6.31741L162.523 19.0912H164.67ZM65.9904 39.0167H66.2754L66.367 41.3707H65.9904C65.8411 40.7703 65.5527 40.2995 65.1252 39.9583C64.6977 39.6171 64.1819 39.4466 63.578 39.4466C63.164 39.4466 62.7942 39.5284 62.4685 39.6922C62.1428 39.856 61.8679 40.0914 61.644 40.3984C61.4201 40.7055 61.247 41.0808 61.1249 41.5243C61.0095 41.9678 60.9519 42.4693 60.9519 43.0288C60.9519 44.1274 61.1792 44.9735 61.6338 45.5671C62.0885 46.1539 62.7467 46.4473 63.6085 46.4473C64.9182 46.4473 65.7596 45.7479 66.1329 44.3491H66.5502V46.8977H66.1939L65.9598 46.0891C65.2473 46.6964 64.3855 47 63.3744 47C62.7976 47 62.2751 46.9079 61.8069 46.7237C61.3454 46.5394 60.9485 46.2801 60.6159 45.9458C60.2902 45.6046 60.0358 45.1918 59.8525 44.7074C59.6761 44.2229 59.5879 43.6839 59.5879 43.0902C59.5879 42.4693 59.6829 41.903 59.8729 41.3912C60.0629 40.8795 60.3275 40.4394 60.6668 40.0709C61.0129 39.7024 61.4235 39.4193 61.8985 39.2214C62.3803 39.0167 62.9096 38.9143 63.4864 38.9143C63.8935 38.9143 64.2769 38.9723 64.6366 39.0883C64.9962 39.2043 65.3864 39.392 65.8071 39.6513L65.9904 39.0167ZM72.8009 38.9143C73.3981 38.9143 73.9545 39.0201 74.4702 39.2316C74.986 39.4431 75.4338 39.7331 75.8138 40.1016C76.1939 40.4701 76.4924 40.9033 76.7096 41.4014C76.9267 41.8996 77.0353 42.4386 77.0353 43.0186C77.0353 43.5713 76.9233 44.0898 76.6994 44.5743C76.4823 45.0588 76.1837 45.4818 75.8037 45.8434C75.4237 46.1983 74.9758 46.4814 74.4601 46.6929C73.9443 46.8977 73.3913 47 72.8009 47C72.2105 47 71.6575 46.8977 71.1418 46.6929C70.626 46.4814 70.1782 46.1983 69.7982 45.8434C69.4182 45.4818 69.1162 45.0588 68.8923 44.5743C68.6751 44.0898 68.5665 43.5713 68.5665 43.0186C68.5665 42.4386 68.6751 41.8996 68.8923 41.4014C69.1094 40.9033 69.408 40.4701 69.788 40.1016C70.168 39.7331 70.6159 39.4431 71.1316 39.2316C71.6473 39.0201 72.2038 38.9143 72.8009 38.9143ZM72.8009 46.4371C73.2488 46.4371 73.6492 46.3586 74.002 46.2017C74.3617 46.0447 74.667 45.8196 74.9181 45.5262C75.176 45.2328 75.3728 44.8779 75.5085 44.4617C75.6442 44.0387 75.7121 43.5679 75.7121 43.0493C75.7121 42.5034 75.6442 42.0121 75.5085 41.5754C75.3728 41.1319 75.1794 40.7566 74.9283 40.4496C74.6772 40.1357 74.3719 39.8969 74.0122 39.7331C73.6525 39.5626 73.2488 39.4773 72.8009 39.4773C72.3531 39.4773 71.9493 39.5626 71.5896 39.7331C71.23 39.8969 70.9246 40.1357 70.6735 40.4496C70.4225 40.7566 70.2291 41.1319 70.0934 41.5754C69.9576 42.0121 69.8898 42.5034 69.8898 43.0493C69.8898 43.5679 69.9576 44.0387 70.0934 44.4617C70.2291 44.8779 70.4225 45.2328 70.6735 45.5262C70.9246 45.8196 71.23 46.0447 71.5896 46.2017C71.9493 46.3586 72.3531 46.4371 72.8009 46.4371ZM85.4016 47L80.5666 40.5929H80.5259V44.9632C80.5259 45.3044 80.5361 45.5739 80.5564 45.7718C80.5836 45.9697 80.6311 46.1232 80.6989 46.2324C80.7736 46.3415 80.8754 46.4132 81.0043 46.4473C81.14 46.4814 81.3165 46.5019 81.5336 46.5087V46.8977H78.7955V46.5087C79.033 46.5019 79.223 46.4814 79.3655 46.4473C79.5148 46.4064 79.6302 46.3347 79.7116 46.2324C79.793 46.13 79.8473 45.9867 79.8745 45.8025C79.9016 45.6115 79.9152 45.3556 79.9152 45.0349V40.8795C79.9152 40.5929 79.9016 40.3575 79.8745 40.1732C79.8541 39.9822 79.8066 39.8321 79.7319 39.7229C79.6641 39.6137 79.5623 39.5387 79.4266 39.4977C79.2909 39.45 79.1144 39.4193 78.8973 39.4056V39.0167H80.9127L85.3608 44.9837H85.4016V40.9511C85.4016 40.6168 85.388 40.3507 85.3608 40.1528C85.3405 39.9481 85.293 39.7911 85.2183 39.682C85.1505 39.5728 85.0487 39.5011 84.913 39.467C84.784 39.4329 84.611 39.4124 84.3938 39.4056V39.0167H87.132V39.4056C86.8944 39.4124 86.701 39.4363 86.5518 39.4773C86.4093 39.5114 86.2973 39.5796 86.2159 39.682C86.1344 39.7843 86.0801 39.931 86.053 40.1221C86.0259 40.3131 86.0123 40.5656 86.0123 40.8795V47H85.4016ZM95.4346 47L90.5996 40.5929H90.5589V44.9632C90.5589 45.3044 90.5691 45.5739 90.5895 45.7718C90.6166 45.9697 90.6641 46.1232 90.732 46.2324C90.8066 46.3415 90.9084 46.4132 91.0373 46.4473C91.173 46.4814 91.3495 46.5019 91.5666 46.5087V46.8977H88.8285V46.5087C89.066 46.5019 89.256 46.4814 89.3985 46.4473C89.5478 46.4064 89.6632 46.3347 89.7446 46.2324C89.8261 46.13 89.8803 45.9867 89.9075 45.8025C89.9346 45.6115 89.9482 45.3556 89.9482 45.0349V40.8795C89.9482 40.5929 89.9346 40.3575 89.9075 40.1732C89.8871 39.9822 89.8396 39.8321 89.765 39.7229C89.6971 39.6137 89.5953 39.5387 89.4596 39.4977C89.3239 39.45 89.1475 39.4193 88.9303 39.4056V39.0167H90.9457L95.3939 44.9837H95.4346V40.9511C95.4346 40.6168 95.421 40.3507 95.3939 40.1528C95.3735 39.9481 95.326 39.7911 95.2514 39.682C95.1835 39.5728 95.0817 39.5011 94.946 39.467C94.8171 39.4329 94.644 39.4124 94.4269 39.4056V39.0167H97.165V39.4056C96.9275 39.4124 96.7341 39.4363 96.5848 39.4773C96.4423 39.5114 96.3303 39.5796 96.2489 39.682C96.1675 39.7843 96.1132 39.931 96.086 40.1221C96.0589 40.3131 96.0453 40.5656 96.0453 40.8795V47H95.4346ZM101.05 42.5682C101.416 42.5682 101.722 42.5478 101.966 42.5068C102.217 42.4591 102.414 42.3874 102.556 42.2919C102.706 42.1964 102.811 42.0735 102.872 41.9234C102.94 41.7733 102.974 41.5959 102.974 41.3912H103.33V44.1854H102.974C102.974 43.9807 102.943 43.8033 102.882 43.6532C102.828 43.503 102.726 43.3802 102.577 43.2847C102.434 43.1823 102.238 43.1073 101.986 43.0595C101.742 43.0049 101.43 42.9776 101.05 42.9776V45.2908C101.05 45.5159 101.077 45.7036 101.131 45.8537C101.186 45.997 101.277 46.1164 101.406 46.2119C101.542 46.3006 101.718 46.3654 101.936 46.4064C102.153 46.4405 102.421 46.4575 102.74 46.4575C103.099 46.4575 103.405 46.4337 103.656 46.3859C103.907 46.3313 104.117 46.2426 104.287 46.1198C104.457 45.997 104.592 45.8366 104.694 45.6387C104.796 45.434 104.881 45.1816 104.948 44.8814H105.335L105.183 46.8977H98.8616V46.5087C99.0991 46.5019 99.2891 46.4814 99.4316 46.4473C99.5809 46.4132 99.6962 46.3552 99.7776 46.2733C99.8591 46.1914 99.9134 46.0754 99.9405 45.9253C99.9676 45.7752 99.9812 45.5807 99.9812 45.3419V40.5724C99.9812 40.3336 99.9676 40.1425 99.9405 39.9992C99.9201 39.8491 99.8726 39.7331 99.798 39.6513C99.7301 39.5626 99.6284 39.5046 99.4926 39.4773C99.3569 39.4431 99.1805 39.4193 98.9633 39.4056V39.0167H104.847L104.938 40.818H104.582C104.541 40.5451 104.473 40.3234 104.378 40.1528C104.29 39.9754 104.165 39.8355 104.002 39.7331C103.846 39.6308 103.646 39.5591 103.401 39.5182C103.157 39.4773 102.862 39.4568 102.516 39.4568H101.223C101.108 39.4568 101.05 39.5148 101.05 39.6308V42.5682ZM113.651 39.0167H113.936L114.027 41.3707H113.651C113.501 40.7703 113.213 40.2995 112.785 39.9583C112.358 39.6171 111.842 39.4466 111.238 39.4466C110.824 39.4466 110.454 39.5284 110.129 39.6922C109.803 39.856 109.528 40.0914 109.304 40.3984C109.08 40.7055 108.907 41.0808 108.785 41.5243C108.67 41.9678 108.612 42.4693 108.612 43.0288C108.612 44.1274 108.839 44.9735 109.294 45.5671C109.749 46.1539 110.407 46.4473 111.269 46.4473C112.578 46.4473 113.42 45.7479 113.793 44.3491H114.21V46.8977H113.854L113.62 46.0891C112.907 46.6964 112.046 47 111.035 47C110.458 47 109.935 46.9079 109.467 46.7237C109.006 46.5394 108.609 46.2801 108.276 45.9458C107.95 45.6046 107.696 45.1918 107.513 44.7074C107.336 44.2229 107.248 43.6839 107.248 43.0902C107.248 42.4693 107.343 41.903 107.533 41.3912C107.723 40.8795 107.988 40.4394 108.327 40.0709C108.673 39.7024 109.084 39.4193 109.559 39.2214C110.04 39.0167 110.57 38.9143 111.147 38.9143C111.554 38.9143 111.937 38.9723 112.297 39.0883C112.656 39.2043 113.047 39.392 113.467 39.6513L113.651 39.0167ZM123.647 40.9716H123.23C123.209 40.6782 123.162 40.4325 123.087 40.2347C123.013 40.0368 122.904 39.8833 122.762 39.7741C122.626 39.6581 122.453 39.5762 122.242 39.5284C122.032 39.4807 121.781 39.4568 121.489 39.4568C121.238 39.4568 121.035 39.4636 120.878 39.4773C120.729 39.4841 120.614 39.5011 120.532 39.5284C120.451 39.5557 120.397 39.5898 120.369 39.6308C120.349 39.6649 120.339 39.7127 120.339 39.7741V45.2498C120.339 45.4682 120.353 45.6558 120.38 45.8127C120.414 45.9697 120.475 46.0993 120.563 46.2017C120.658 46.2972 120.79 46.3723 120.96 46.4268C121.136 46.4746 121.367 46.5019 121.652 46.5087V46.8977H117.804V46.5087C118.089 46.5019 118.32 46.4746 118.497 46.4268C118.673 46.3723 118.805 46.2972 118.894 46.2017C118.989 46.0993 119.05 45.9697 119.077 45.8127C119.111 45.6558 119.128 45.4682 119.128 45.2498V39.7741C119.128 39.7127 119.114 39.6649 119.087 39.6308C119.067 39.5898 119.019 39.5557 118.944 39.5284C118.877 39.5011 118.778 39.4841 118.649 39.4773C118.52 39.4636 118.347 39.4568 118.13 39.4568C117.865 39.4568 117.618 39.467 117.387 39.4875C117.163 39.508 116.966 39.5694 116.797 39.6717C116.634 39.7673 116.502 39.9174 116.4 40.1221C116.298 40.3268 116.244 40.6099 116.237 40.9716H115.86V39.0167H123.545L123.647 40.9716Z" stroke="white" stroke-width="0.5"/>
</svg>
