<svg width="231" height="59" viewBox="0 0 231 59" fill="none" xmlns="http://www.w3.org/2000/svg">
<path d="M4.01448 37.165C4.11443 36.8182 4.20605 36.3889 4.28934 35.8769C4.37262 35.365 4.44758 34.7292 4.51421 33.9696C4.58084 33.21 4.63082 32.31 4.66413 31.2696C4.69745 30.2127 4.7141 28.9825 4.7141 27.5788V11.4532C4.7141 10.0495 4.69745 8.82749 4.66413 7.78713C4.63082 6.73025 4.58084 5.822 4.51421 5.06237C4.44758 4.28623 4.37262 3.64219 4.28934 3.13027C4.20605 2.61834 4.11443 2.18899 4.01448 1.8422V1.74312H9.98624V1.8422C9.88629 2.18899 9.78635 2.61834 9.6864 3.13027C9.60311 3.64219 9.52815 4.28623 9.46152 5.06237C9.41155 5.822 9.36158 6.73025 9.31161 7.78713C9.27829 8.82749 9.26163 10.0495 9.26163 11.4532V27.5788C9.26163 28.9825 9.27829 30.2127 9.31161 31.2696C9.36158 32.31 9.41155 33.21 9.46152 33.9696C9.52815 34.7292 9.60311 35.365 9.6864 35.8769C9.78635 36.3889 9.88629 36.8182 9.98624 37.165V37.2641H4.01448V37.165Z" fill="#27395C"/>
<path d="M29.4423 1.74312L55.1783 28.8916V11.4532C55.1783 10.0495 55.1617 8.82749 55.1284 7.78713C55.0951 6.73025 55.0451 5.822 54.9785 5.06237C54.9118 4.28623 54.8285 3.64219 54.7286 3.13027C54.6453 2.61834 54.5537 2.18899 54.4537 1.8422V1.74312H58.9013V1.8422C58.8014 2.18899 58.7098 2.61834 58.6265 3.13027C58.5432 3.64219 58.4682 4.28623 58.4016 5.06237C58.335 5.822 58.285 6.73025 58.2517 7.78713C58.2184 8.82749 58.2017 10.0495 58.2017 11.4532V37.7595H57.3272L31.5912 10.6357V27.5788C31.5912 28.9825 31.6078 30.2127 31.6411 31.2696C31.6745 32.31 31.7244 33.21 31.7911 33.9696C31.8577 34.7292 31.9326 35.365 32.0159 35.8769C32.0992 36.3889 32.1908 36.8182 32.2908 37.165V37.2641H27.8432V37.165C27.9431 36.8182 28.0348 36.3889 28.1181 35.8769C28.218 35.365 28.3013 34.7292 28.3679 33.9696C28.4345 33.21 28.4845 32.31 28.5178 31.2696C28.5511 30.2127 28.5678 28.9825 28.5678 27.5788V11.4532C28.5678 10.0495 28.5511 8.82749 28.5178 7.78713C28.4845 6.73025 28.4345 5.822 28.3679 5.06237C28.3013 4.28623 28.218 3.64219 28.1181 3.13027C28.0348 2.61834 27.9431 2.18899 27.8432 1.8422V1.74312H29.4423Z" fill="#27395C"/>
<path d="M91.4753 7.3908H90.9256C90.7923 7.01099 90.5758 6.58163 90.2759 6.10273C89.9928 5.62384 89.6096 5.17797 89.1266 4.76512C88.6601 4.33577 88.0855 3.98072 87.4025 3.69999C86.7362 3.41926 85.945 3.27889 85.0288 3.27889C84.2126 3.27889 83.488 3.40274 82.855 3.65045C82.222 3.89815 81.6889 4.24494 81.2558 4.69081C80.8394 5.13668 80.5229 5.66512 80.3064 6.27613C80.0898 6.88713 79.9815 7.56419 79.9815 8.30731C79.9815 9.4963 80.3147 10.6357 80.981 11.7256C81.6639 12.799 82.5135 13.8642 83.5296 14.921C84.5457 15.9779 85.6451 17.0348 86.8278 18.0917C88.0105 19.1486 89.1099 20.2467 90.126 21.3862C91.1421 22.5256 91.9833 23.7228 92.6496 24.9779C93.3326 26.2164 93.6741 27.554 93.6741 28.9907C93.6741 30.0641 93.4825 31.1458 93.0994 32.2357C92.7329 33.3091 92.1582 34.2751 91.3753 35.1338C90.5924 35.9925 89.5846 36.6944 88.352 37.2393C87.1193 37.7677 85.6535 38.032 83.9544 38.032C83.0049 38.032 82.097 37.9411 81.2309 37.7595C80.3813 37.5944 79.5901 37.3879 78.8571 37.1402C78.1409 36.876 77.4912 36.5953 76.9082 36.298C76.3418 36.0008 75.8754 35.7283 75.509 35.4806L76.0836 30.0063H76.7083C76.8915 30.7825 77.1914 31.5256 77.6078 32.2357C78.0243 32.9292 78.5323 33.5485 79.132 34.0934C79.7483 34.6219 80.4479 35.0512 81.2309 35.3815C82.0138 35.6953 82.8716 35.8522 83.8045 35.8522C84.654 35.8522 85.4119 35.7283 86.0782 35.4806C86.7612 35.2164 87.3442 34.8613 87.8273 34.4155C88.3103 33.9531 88.6768 33.4081 88.9267 32.7806C89.1932 32.1531 89.3265 31.4678 89.3265 30.7247C89.3265 29.6843 89.1349 28.7265 88.7518 27.8513C88.3686 26.9595 87.8606 26.1173 87.2276 25.3247C86.6113 24.532 85.9033 23.7641 85.1037 23.021C84.3208 22.2779 83.5129 21.5348 82.6801 20.7917C81.8472 20.032 81.031 19.2559 80.2314 18.4632C79.4485 17.6706 78.7405 16.8284 78.1076 15.9366C77.4912 15.0284 76.9915 14.0623 76.6084 13.0385C76.2252 11.9981 76.0337 10.8587 76.0337 9.62015C76.0337 8.31557 76.2835 7.1431 76.7833 6.10273C77.2997 5.04586 77.9743 4.14586 78.8072 3.40274C79.6567 2.65963 80.6145 2.0899 81.6806 1.69358C82.7467 1.29725 83.8461 1.09908 84.9788 1.09908C85.8117 1.09908 86.5779 1.16514 87.2776 1.29725C87.9772 1.42936 88.6018 1.58624 89.1515 1.76789C89.7179 1.94954 90.2093 2.13119 90.6257 2.31284C91.0422 2.49449 91.3837 2.64311 91.6502 2.75871L91.4753 7.3908Z" fill="#27395C"/>
<path d="M136.118 11.4532C136.118 10.0495 136.101 8.82749 136.068 7.78713C136.034 6.73025 135.984 5.822 135.918 5.06237C135.851 4.28623 135.776 3.64219 135.693 3.13027C135.61 2.61834 135.518 2.18899 135.418 1.8422V1.74312H139.866V1.8422C139.766 2.18899 139.666 2.61834 139.566 3.13027C139.483 3.64219 139.408 4.28623 139.341 5.06237C139.291 5.822 139.241 6.73025 139.191 7.78713C139.158 8.82749 139.141 10.0495 139.141 11.4532V24.8293C139.141 27.1907 138.8 29.2054 138.117 30.8733C137.434 32.5412 136.484 33.9118 135.268 34.9852C134.052 36.0421 132.595 36.81 130.896 37.2889C129.196 37.7843 127.339 38.032 125.324 38.032C123.308 38.032 121.426 37.8008 119.677 37.3384C117.944 36.876 116.428 36.1329 115.129 35.109C113.846 34.0687 112.839 32.7311 112.106 31.0962C111.373 29.4448 111.006 27.4384 111.006 25.077V11.4532C111.006 10.0495 110.99 8.82749 110.956 7.78713C110.923 6.73025 110.873 5.822 110.806 5.06237C110.74 4.28623 110.657 3.64219 110.557 3.13027C110.473 2.61834 110.382 2.18899 110.282 1.8422V1.74312H116.278V1.8422C116.179 2.18899 116.079 2.61834 115.979 3.13027C115.895 3.64219 115.82 4.28623 115.754 5.06237C115.687 5.822 115.637 6.73025 115.604 7.78713C115.571 8.82749 115.554 10.0495 115.554 11.4532V25.3494C115.554 27.3146 115.845 28.9412 116.428 30.2292C117.028 31.5008 117.811 32.5164 118.777 33.276C119.743 34.0191 120.843 34.5393 122.075 34.8366C123.308 35.1338 124.566 35.2824 125.848 35.2824C127.131 35.2824 128.389 35.1338 129.621 34.8366C130.854 34.5393 131.945 34.0191 132.894 33.276C133.861 32.5164 134.635 31.5008 135.218 30.2292C135.818 28.9412 136.118 27.3146 136.118 25.3494V11.4532Z" fill="#27395C"/>
<path d="M162.745 27.5788C162.745 28.9825 162.762 30.2127 162.795 31.2696C162.845 32.31 162.895 33.21 162.945 33.9696C163.011 34.7292 163.086 35.365 163.17 35.8769C163.27 36.3889 163.37 36.8182 163.469 37.165V37.2641H157.473V37.165C157.573 36.8182 157.664 36.3889 157.748 35.8769C157.848 35.365 157.923 34.7292 157.972 33.9696C158.039 33.21 158.089 32.31 158.122 31.2696C158.172 30.2292 158.197 28.999 158.197 27.5788V11.4532C158.197 10.0495 158.172 8.82749 158.122 7.78713C158.089 6.73025 158.039 5.822 157.972 5.06237C157.923 4.30274 157.848 3.66696 157.748 3.15504C157.664 2.6266 157.573 2.18899 157.473 1.8422V1.74312L158.522 1.8422C158.839 1.87523 159.188 1.9 159.572 1.91651C159.971 1.91651 160.38 1.91651 160.796 1.91651C161.446 1.91651 162.32 1.8422 163.42 1.69358C164.536 1.52844 165.951 1.44587 167.667 1.44587C169.266 1.44587 170.741 1.66055 172.09 2.0899C173.456 2.51926 174.638 3.14678 175.638 3.97247C176.637 4.79815 177.412 5.81374 177.962 7.01924C178.528 8.20823 178.811 9.56235 178.811 11.0816C178.811 12.2706 178.653 13.377 178.336 14.4009C178.037 15.4082 177.603 16.3247 177.037 17.1504C176.487 17.9761 175.821 18.7109 175.038 19.355C174.255 19.9825 173.381 20.5109 172.415 20.9403L181.185 33.1522C181.618 33.7632 182.018 34.2916 182.384 34.7375C182.767 35.1834 183.125 35.5714 183.459 35.9017C183.808 36.2155 184.142 36.4797 184.458 36.6944C184.775 36.8925 185.099 37.0494 185.433 37.165V37.2641H178.211C178.161 36.9503 177.995 36.5375 177.712 36.0256C177.445 35.4971 177.129 34.9769 176.762 34.465L167.917 22.1045C167.534 22.1375 167.151 22.1706 166.768 22.2036C166.385 22.2201 165.993 22.2284 165.593 22.2284C165.127 22.2284 164.652 22.2118 164.169 22.1788C163.703 22.1458 163.228 22.088 162.745 22.0054V27.5788ZM162.745 20.0733C163.195 20.1724 163.653 20.2467 164.119 20.2963C164.586 20.3293 165.035 20.3458 165.468 20.3458C166.718 20.3458 167.859 20.1641 168.892 19.8008C169.924 19.421 170.799 18.8513 171.515 18.0917C172.248 17.332 172.814 16.3908 173.214 15.2678C173.614 14.1284 173.814 12.799 173.814 11.2798C173.814 10.0412 173.672 8.91832 173.389 7.91098C173.106 6.90365 172.681 6.05319 172.115 5.35962C171.565 4.64953 170.865 4.10458 170.016 3.72476C169.166 3.32843 168.175 3.13027 167.043 3.13027C165.893 3.13027 164.977 3.18807 164.294 3.30366C163.611 3.41926 163.095 3.54311 162.745 3.67522V20.0733Z" fill="#27395C"/>
<path d="M223.154 37.2641V37.165C223.187 37.0824 223.212 36.9586 223.229 36.7934C223.245 36.6283 223.254 36.4797 223.254 36.3476C223.254 35.8356 223.179 35.2742 223.029 34.6632C222.896 34.0357 222.629 33.2595 222.229 32.3347L219.206 25.5972C218.273 25.5641 217.032 25.5476 215.483 25.5476C213.934 25.5476 212.26 25.5476 210.461 25.5476C209.145 25.5476 207.87 25.5476 206.638 25.5476C205.422 25.5476 204.322 25.5641 203.339 25.5972L200.466 32.1366C200.216 32.7476 199.95 33.4164 199.666 34.143C199.383 34.8696 199.242 35.6045 199.242 36.3476C199.242 36.5622 199.258 36.7439 199.292 36.8925C199.325 37.0246 199.358 37.1155 199.392 37.165V37.2641H194.294V37.165C194.594 36.8512 194.969 36.298 195.419 35.5054C195.869 34.6962 196.36 33.6889 196.893 32.4834L211.21 1H213.209L226.777 31.2696C227.093 31.9797 227.418 32.6733 227.751 33.3503C228.101 34.0109 228.426 34.6054 228.726 35.1338C229.026 35.6623 229.292 36.1081 229.525 36.4714C229.758 36.8347 229.917 37.0659 230 37.165V37.2641H223.154ZM206.963 23.4173C207.929 23.4173 208.92 23.4173 209.936 23.4173C210.952 23.4008 211.943 23.3926 212.909 23.3926C213.892 23.3761 214.833 23.3678 215.733 23.3678C216.632 23.3513 217.448 23.3348 218.181 23.3183L211.16 7.58897L204.264 23.4173H206.963Z" fill="#27395C"/>
<path d="M82.9387 48.1076H83.2969L83.412 51.0246H82.9387C82.7511 50.2806 82.3886 49.6972 81.8513 49.2744C81.314 48.8517 80.6658 48.6403 79.9068 48.6403C79.3865 48.6403 78.9217 48.7418 78.5123 48.9447C78.1029 49.1476 77.7575 49.4393 77.4761 49.8198C77.1946 50.2003 76.9771 50.6653 76.8236 51.2149C76.6786 51.7644 76.6061 52.3859 76.6061 53.0792C76.6061 54.4404 76.8919 55.4889 77.4633 56.2244C78.0347 56.9516 78.862 57.3151 79.9451 57.3151C81.5912 57.3151 82.6487 56.4485 83.1178 54.7152H83.6423V57.8732H83.1946L82.9003 56.8713C82.0048 57.6237 80.9217 58 79.6509 58C78.9259 58 78.2692 57.8859 77.6808 57.6576C77.1008 57.4293 76.6019 57.108 76.184 56.6937C75.7746 56.271 75.4548 55.7594 75.2245 55.1591C75.0027 54.5588 74.8919 53.8909 74.8919 53.1553C74.8919 52.3859 75.0113 51.6841 75.2501 51.05C75.4889 50.4159 75.8215 49.8705 76.2479 49.4139C76.6829 48.9574 77.1989 48.6065 77.7959 48.3613C78.4014 48.1076 79.0667 47.9808 79.7916 47.9808C80.3033 47.9808 80.7852 48.0527 81.2372 48.1964C81.6892 48.3401 82.1797 48.5727 82.7084 48.894L82.9387 48.1076Z" fill="#27395C"/>
<path d="M91.4984 47.9808C92.2489 47.9808 92.9483 48.1119 93.5965 48.374C94.2447 48.6361 94.8075 48.9954 95.2852 49.452C95.7628 49.9086 96.138 50.4454 96.411 51.0627C96.6839 51.6799 96.8203 52.3478 96.8203 53.0665C96.8203 53.7514 96.6796 54.3939 96.3982 54.9942C96.1252 55.5946 95.75 56.1188 95.2724 56.5669C94.7948 57.0065 94.2319 57.3574 93.5837 57.6195C92.9355 57.8732 92.2404 58 91.4984 58C90.7564 58 90.0613 57.8732 89.4132 57.6195C88.765 57.3574 88.2021 57.0065 87.7245 56.5669C87.2469 56.1188 86.8673 55.5946 86.5859 54.9942C86.313 54.3939 86.1765 53.7514 86.1765 53.0665C86.1765 52.3478 86.313 51.6799 86.5859 51.0627C86.8588 50.4454 87.2341 49.9086 87.7117 49.452C88.1893 48.9954 88.7522 48.6361 89.4004 48.374C90.0485 48.1119 90.7479 47.9808 91.4984 47.9808ZM91.4984 57.3025C92.0613 57.3025 92.5645 57.2052 93.008 57.0108C93.46 56.8163 93.8438 56.5373 94.1594 56.1737C94.4835 55.8102 94.7308 55.3705 94.9014 54.8547C95.072 54.3305 95.1572 53.7471 95.1572 53.1045C95.1572 52.4281 95.072 51.8194 94.9014 51.2783C94.7308 50.7287 94.4877 50.2637 94.1722 49.8832C93.8566 49.4943 93.4728 49.1983 93.0208 48.9954C92.5688 48.784 92.0613 48.6783 91.4984 48.6783C90.9355 48.6783 90.4281 48.784 89.9761 48.9954C89.524 49.1983 89.1402 49.4943 88.8247 49.8832C88.5091 50.2637 88.266 50.7287 88.0955 51.2783C87.9249 51.8194 87.8396 52.4281 87.8396 53.1045C87.8396 53.7471 87.9249 54.3305 88.0955 54.8547C88.266 55.3705 88.5091 55.8102 88.8247 56.1737C89.1402 56.5373 89.524 56.8163 89.9761 57.0108C90.4281 57.2052 90.9355 57.3025 91.4984 57.3025Z" fill="#27395C"/>
<path d="M107.335 58L101.259 50.0607H101.207V55.4762C101.207 55.8989 101.22 56.2329 101.246 56.4781C101.28 56.7233 101.34 56.9135 101.425 57.0488C101.519 57.1841 101.647 57.2729 101.809 57.3151C101.979 57.3574 102.201 57.3828 102.474 57.3912V57.8732H99.0326V57.3912C99.3311 57.3828 99.5699 57.3574 99.749 57.3151C99.9366 57.2644 100.082 57.1756 100.184 57.0488C100.286 56.922 100.355 56.7444 100.389 56.5161C100.423 56.2794 100.44 55.9623 100.44 55.565V50.4159C100.44 50.0607 100.423 49.769 100.389 49.5408C100.363 49.304 100.303 49.118 100.21 48.9827C100.124 48.8475 99.9963 48.7544 99.8258 48.7037C99.6552 48.6445 99.4334 48.6065 99.1605 48.5896V48.1076H101.694L107.284 55.5015H107.335V50.5046C107.335 50.0903 107.318 49.7606 107.284 49.5154C107.259 49.2617 107.199 49.0673 107.105 48.932C107.02 48.7967 106.892 48.7079 106.721 48.6657C106.559 48.6234 106.342 48.598 106.069 48.5896V48.1076H109.51V48.5896C109.212 48.598 108.969 48.6276 108.781 48.6783C108.602 48.7206 108.461 48.8052 108.359 48.932C108.256 49.0588 108.188 49.2406 108.154 49.4773C108.12 49.7141 108.103 50.0269 108.103 50.4159V58H107.335Z" fill="#27395C"/>
<path d="M119.945 58L113.868 50.0607H113.817V55.4762C113.817 55.8989 113.83 56.2329 113.856 56.4781C113.89 56.7233 113.949 56.9135 114.035 57.0488C114.129 57.1841 114.256 57.2729 114.418 57.3151C114.589 57.3574 114.811 57.3828 115.084 57.3912V57.8732H111.642V57.3912C111.941 57.3828 112.18 57.3574 112.359 57.3151C112.546 57.2644 112.691 57.1756 112.794 57.0488C112.896 56.922 112.964 56.7444 112.998 56.5161C113.033 56.2794 113.05 55.9623 113.05 55.565V50.4159C113.05 50.0607 113.033 49.769 112.998 49.5408C112.973 49.304 112.913 49.118 112.819 48.9827C112.734 48.8475 112.606 48.7544 112.436 48.7037C112.265 48.6445 112.043 48.6065 111.77 48.5896V48.1076H114.303L119.894 55.5015H119.945V50.5046C119.945 50.0903 119.928 49.7606 119.894 49.5154C119.868 49.2617 119.809 49.0673 119.715 48.932C119.63 48.7967 119.502 48.7079 119.331 48.6657C119.169 48.6234 118.951 48.598 118.679 48.5896V48.1076H122.12V48.5896C121.821 48.598 121.578 48.6276 121.391 48.6783C121.212 48.7206 121.071 48.8052 120.969 48.932C120.866 49.0588 120.798 49.2406 120.764 49.4773C120.73 49.7141 120.713 50.0269 120.713 50.4159V58H119.945Z" fill="#27395C"/>
<path d="M127.003 52.5085C127.463 52.5085 127.847 52.4831 128.154 52.4324C128.47 52.3732 128.717 52.2844 128.896 52.166C129.084 52.0477 129.216 51.8955 129.293 51.7095C129.378 51.5235 129.421 51.3036 129.421 51.05H129.868V54.5123H129.421C129.421 54.2587 129.382 54.0388 129.305 53.8528C129.237 53.6668 129.109 53.5146 128.922 53.3962C128.743 53.2694 128.495 53.1764 128.18 53.1172C127.873 53.0496 127.48 53.0158 127.003 53.0158V55.882C127.003 56.161 127.037 56.3935 127.105 56.5796C127.173 56.7571 127.288 56.9051 127.45 57.0234C127.621 57.1334 127.843 57.2137 128.116 57.2644C128.389 57.3067 128.726 57.3278 129.126 57.3278C129.578 57.3278 129.962 57.2982 130.278 57.2391C130.593 57.1714 130.858 57.0615 131.071 56.9093C131.284 56.7571 131.455 56.5584 131.583 56.3132C131.711 56.0596 131.817 55.7467 131.902 55.3747H132.389L132.197 57.8732H124.252V57.3912C124.551 57.3828 124.79 57.3574 124.969 57.3151C125.156 57.2729 125.301 57.201 125.404 57.0995C125.506 56.9981 125.574 56.8543 125.608 56.6683C125.642 56.4823 125.659 56.2414 125.659 55.9454V50.0354C125.659 49.7395 125.642 49.5027 125.608 49.3252C125.583 49.1391 125.523 48.9954 125.429 48.894C125.344 48.784 125.216 48.7122 125.045 48.6783C124.875 48.6361 124.653 48.6065 124.38 48.5896V48.1076H131.775L131.89 50.3398H131.442C131.391 50.0016 131.305 49.7268 131.186 49.5154C131.075 49.2956 130.917 49.1222 130.713 48.9954C130.517 48.8686 130.265 48.7798 129.958 48.7291C129.651 48.6783 129.28 48.653 128.845 48.653H127.22C127.075 48.653 127.003 48.7248 127.003 48.8686V52.5085Z" fill="#27395C"/>
<path d="M142.839 48.1076H143.198L143.313 51.0246H142.839C142.652 50.2806 142.289 49.6972 141.752 49.2744C141.215 48.8517 140.567 48.6403 139.808 48.6403C139.287 48.6403 138.822 48.7418 138.413 48.9447C138.004 49.1476 137.658 49.4393 137.377 49.8198C137.095 50.2003 136.878 50.6653 136.724 51.2149C136.579 51.7644 136.507 52.3859 136.507 53.0792C136.507 54.4404 136.793 55.4889 137.364 56.2244C137.935 56.9516 138.763 57.3151 139.846 57.3151C141.492 57.3151 142.55 56.4485 143.019 54.7152H143.543V57.8732H143.095L142.801 56.8713C141.906 57.6237 140.822 58 139.552 58C138.827 58 138.17 57.8859 137.582 57.6576C137.002 57.4293 136.503 57.108 136.085 56.6937C135.675 56.271 135.356 55.7594 135.125 55.1591C134.904 54.5588 134.793 53.8909 134.793 53.1553C134.793 52.3859 134.912 51.6841 135.151 51.05C135.39 50.4159 135.722 49.8705 136.149 49.4139C136.584 48.9574 137.1 48.6065 137.697 48.3613C138.302 48.1076 138.967 47.9808 139.692 47.9808C140.204 47.9808 140.686 48.0527 141.138 48.1964C141.59 48.3401 142.08 48.5727 142.609 48.894L142.839 48.1076Z" fill="#27395C"/>
<path d="M155.403 50.53H154.879C154.853 50.1664 154.794 49.862 154.7 49.6169C154.606 49.3717 154.47 49.1814 154.29 49.0461C154.12 48.9024 153.902 48.8009 153.638 48.7418C153.374 48.6826 153.058 48.653 152.691 48.653C152.376 48.653 152.12 48.6614 151.924 48.6783C151.736 48.6868 151.591 48.7079 151.489 48.7418C151.386 48.7756 151.318 48.8179 151.284 48.8686C151.258 48.9109 151.246 48.97 151.246 49.0461V55.8313C151.246 56.1019 151.263 56.3344 151.297 56.5288C151.339 56.7233 151.416 56.8839 151.527 57.0108C151.647 57.1291 151.813 57.2221 152.026 57.2898C152.248 57.349 152.538 57.3828 152.896 57.3912V57.8732H148.06V57.3912C148.418 57.3828 148.708 57.349 148.93 57.2898C149.152 57.2221 149.318 57.1291 149.429 57.0108C149.548 56.8839 149.625 56.7233 149.659 56.5288C149.702 56.3344 149.723 56.1019 149.723 55.8313V49.0461C149.723 48.97 149.706 48.9109 149.672 48.8686C149.647 48.8179 149.587 48.7756 149.493 48.7418C149.408 48.7079 149.284 48.6868 149.122 48.6783C148.96 48.6614 148.743 48.653 148.47 48.653C148.137 48.653 147.826 48.6657 147.536 48.691C147.254 48.7164 147.007 48.7925 146.794 48.9193C146.589 49.0377 146.423 49.2237 146.295 49.4773C146.167 49.731 146.099 50.0819 146.09 50.53H145.617V48.1076H155.275L155.403 50.53Z" fill="#27395C"/>
<path d="M69.2957 53.3814H0M229.742 53.3814H160.446M4.01448 37.165C4.11443 36.8182 4.20605 36.3889 4.28934 35.8769C4.37262 35.365 4.44758 34.7292 4.51421 33.9696C4.58084 33.21 4.63082 32.31 4.66413 31.2696C4.69745 30.2127 4.7141 28.9825 4.7141 27.5788V11.4532C4.7141 10.0495 4.69745 8.82749 4.66413 7.78713C4.63082 6.73025 4.58084 5.822 4.51421 5.06237C4.44758 4.28623 4.37262 3.64219 4.28934 3.13027C4.20605 2.61834 4.11443 2.18899 4.01448 1.8422V1.74312H9.98624V1.8422C9.88629 2.18899 9.78635 2.61834 9.6864 3.13027C9.60311 3.64219 9.52815 4.28623 9.46152 5.06237C9.41155 5.822 9.36158 6.73025 9.31161 7.78713C9.27829 8.82749 9.26163 10.0495 9.26163 11.4532V27.5788C9.26163 28.9825 9.27829 30.2127 9.31161 31.2696C9.36158 32.31 9.41155 33.21 9.46152 33.9696C9.52815 34.7292 9.60311 35.365 9.6864 35.8769C9.78635 36.3889 9.88629 36.8182 9.98624 37.165V37.2641H4.01448V37.165ZM29.4423 1.74312L55.1783 28.8916V11.4532C55.1783 10.0495 55.1617 8.82749 55.1284 7.78713C55.0951 6.73025 55.0451 5.822 54.9785 5.06237C54.9118 4.28623 54.8285 3.64219 54.7286 3.13027C54.6453 2.61834 54.5537 2.18899 54.4537 1.8422V1.74312H58.9013V1.8422C58.8014 2.18899 58.7098 2.61834 58.6265 3.13027C58.5432 3.64219 58.4682 4.28623 58.4016 5.06237C58.335 5.822 58.285 6.73025 58.2517 7.78713C58.2184 8.82749 58.2017 10.0495 58.2017 11.4532V37.7595H57.3272L31.5912 10.6357V27.5788C31.5912 28.9825 31.6078 30.2127 31.6411 31.2696C31.6745 32.31 31.7244 33.21 31.7911 33.9696C31.8577 34.7292 31.9326 35.365 32.0159 35.8769C32.0992 36.3889 32.1908 36.8182 32.2908 37.165V37.2641H27.8432V37.165C27.9431 36.8182 28.0348 36.3889 28.1181 35.8769C28.218 35.365 28.3013 34.7292 28.3679 33.9696C28.4345 33.21 28.4845 32.31 28.5178 31.2696C28.5511 30.2127 28.5678 28.9825 28.5678 27.5788V11.4532C28.5678 10.0495 28.5511 8.82749 28.5178 7.78713C28.4845 6.73025 28.4345 5.822 28.3679 5.06237C28.3013 4.28623 28.218 3.64219 28.1181 3.13027C28.0348 2.61834 27.9431 2.18899 27.8432 1.8422V1.74312H29.4423ZM91.4753 7.3908H90.9256C90.7923 7.01099 90.5758 6.58163 90.2759 6.10273C89.9928 5.62384 89.6096 5.17797 89.1266 4.76512C88.6601 4.33577 88.0855 3.98072 87.4025 3.69999C86.7362 3.41926 85.945 3.27889 85.0288 3.27889C84.2126 3.27889 83.488 3.40274 82.855 3.65045C82.222 3.89815 81.6889 4.24494 81.2558 4.69081C80.8394 5.13668 80.5229 5.66512 80.3064 6.27613C80.0898 6.88713 79.9815 7.56419 79.9815 8.30731C79.9815 9.4963 80.3147 10.6357 80.981 11.7256C81.6639 12.799 82.5135 13.8642 83.5296 14.921C84.5457 15.9779 85.6451 17.0348 86.8278 18.0917C88.0105 19.1486 89.1099 20.2467 90.126 21.3862C91.1421 22.5256 91.9833 23.7228 92.6496 24.9779C93.3326 26.2164 93.6741 27.554 93.6741 28.9907C93.6741 30.0641 93.4825 31.1458 93.0994 32.2357C92.7329 33.309 92.1582 34.2751 91.3753 35.1338C90.5924 35.9925 89.5846 36.6944 88.352 37.2393C87.1193 37.7677 85.6534 38.032 83.9544 38.032C83.0049 38.032 82.097 37.9411 81.2309 37.7595C80.3813 37.5944 79.5901 37.3879 78.8571 37.1402C78.1409 36.876 77.4912 36.5953 76.9082 36.298C76.3418 36.0008 75.8754 35.7283 75.509 35.4806L76.0836 30.0063H76.7083C76.8915 30.7825 77.1914 31.5256 77.6078 32.2357C78.0243 32.9292 78.5323 33.5485 79.132 34.0935C79.7483 34.6219 80.4479 35.0512 81.2309 35.3815C82.0138 35.6953 82.8716 35.8522 83.8045 35.8522C84.654 35.8522 85.4119 35.7283 86.0782 35.4806C86.7612 35.2164 87.3442 34.8613 87.8273 34.4155C88.3103 33.9531 88.6768 33.4081 88.9267 32.7806C89.1932 32.1531 89.3265 31.4678 89.3265 30.7247C89.3265 29.6843 89.1349 28.7265 88.7518 27.8513C88.3686 26.9595 87.8606 26.1173 87.2276 25.3247C86.6113 24.532 85.9033 23.7641 85.1037 23.021C84.3208 22.2779 83.5129 21.5348 82.6801 20.7917C81.8472 20.032 81.031 19.2559 80.2314 18.4632C79.4485 17.6706 78.7405 16.8284 78.1075 15.9366C77.4912 15.0284 76.9915 14.0623 76.6084 13.0385C76.2252 11.9981 76.0337 10.8587 76.0337 9.62015C76.0337 8.31557 76.2835 7.1431 76.7833 6.10273C77.2997 5.04586 77.9743 4.14586 78.8072 3.40274C79.6567 2.65963 80.6145 2.0899 81.6806 1.69358C82.7467 1.29725 83.8461 1.09908 84.9788 1.09908C85.8117 1.09908 86.5779 1.16514 87.2776 1.29725C87.9772 1.42936 88.6018 1.58624 89.1515 1.76789C89.7179 1.94954 90.2093 2.13119 90.6257 2.31284C91.0422 2.49449 91.3837 2.64311 91.6502 2.75871L91.4753 7.3908ZM136.118 11.4532C136.118 10.0495 136.101 8.82749 136.068 7.78713C136.034 6.73025 135.984 5.822 135.918 5.06237C135.851 4.28623 135.776 3.64219 135.693 3.13027C135.61 2.61834 135.518 2.18899 135.418 1.8422V1.74312H139.866V1.8422C139.766 2.18899 139.666 2.61834 139.566 3.13027C139.483 3.64219 139.408 4.28623 139.341 5.06237C139.291 5.822 139.241 6.73025 139.191 7.78713C139.158 8.82749 139.141 10.0495 139.141 11.4532V24.8293C139.141 27.1907 138.8 29.2054 138.117 30.8733C137.434 32.5412 136.484 33.9118 135.268 34.9852C134.052 36.0421 132.595 36.81 130.896 37.2889C129.196 37.7843 127.339 38.032 125.324 38.032C123.308 38.032 121.426 37.8008 119.677 37.3384C117.944 36.876 116.428 36.1329 115.129 35.109C113.846 34.0687 112.839 32.7311 112.106 31.0962C111.373 29.4448 111.006 27.4384 111.006 25.077V11.4532C111.006 10.0495 110.99 8.82749 110.956 7.78713C110.923 6.73025 110.873 5.822 110.806 5.06237C110.74 4.28623 110.657 3.64219 110.557 3.13027C110.473 2.61834 110.382 2.18899 110.282 1.8422V1.74312H116.278V1.8422C116.179 2.18899 116.079 2.61834 115.979 3.13027C115.895 3.64219 115.82 4.28623 115.754 5.06237C115.687 5.822 115.637 6.73025 115.604 7.78713C115.571 8.82749 115.554 10.0495 115.554 11.4532V25.3494C115.554 27.3146 115.845 28.9412 116.428 30.2292C117.028 31.5008 117.811 32.5164 118.777 33.276C119.743 34.0191 120.843 34.5393 122.075 34.8366C123.308 35.1338 124.566 35.2824 125.848 35.2824C127.131 35.2824 128.389 35.1338 129.621 34.8366C130.854 34.5393 131.945 34.0191 132.894 33.276C133.861 32.5164 134.635 31.5008 135.218 30.2292C135.818 28.9412 136.118 27.3146 136.118 25.3494V11.4532ZM162.745 27.5788C162.745 28.9825 162.762 30.2127 162.795 31.2696C162.845 32.31 162.895 33.21 162.945 33.9696C163.011 34.7292 163.086 35.365 163.17 35.8769C163.27 36.3889 163.37 36.8182 163.469 37.165V37.2641H157.473V37.165C157.573 36.8182 157.664 36.3889 157.748 35.8769C157.848 35.365 157.923 34.7292 157.972 33.9696C158.039 33.21 158.089 32.31 158.122 31.2696C158.172 30.2292 158.197 28.999 158.197 27.5788V11.4532C158.197 10.0495 158.172 8.82749 158.122 7.78713C158.089 6.73025 158.039 5.822 157.972 5.06237C157.923 4.30274 157.848 3.66696 157.748 3.15504C157.664 2.6266 157.573 2.18899 157.473 1.8422V1.74312L158.522 1.8422C158.839 1.87523 159.188 1.9 159.572 1.91651C159.971 1.91651 160.38 1.91651 160.796 1.91651C161.446 1.91651 162.32 1.8422 163.42 1.69358C164.536 1.52844 165.951 1.44587 167.667 1.44587C169.266 1.44587 170.741 1.66055 172.09 2.0899C173.456 2.51926 174.638 3.14678 175.638 3.97247C176.637 4.79815 177.412 5.81374 177.962 7.01924C178.528 8.20823 178.811 9.56235 178.811 11.0816C178.811 12.2706 178.653 13.377 178.336 14.4009C178.037 15.4082 177.603 16.3247 177.037 17.1504C176.487 17.9761 175.821 18.7109 175.038 19.355C174.255 19.9825 173.381 20.5109 172.415 20.9403L181.185 33.1522C181.618 33.7632 182.018 34.2916 182.384 34.7375C182.767 35.1834 183.125 35.5714 183.459 35.9017C183.808 36.2155 184.142 36.4797 184.458 36.6944C184.775 36.8925 185.099 37.0494 185.433 37.165V37.2641H178.211C178.162 36.9503 177.995 36.5375 177.712 36.0256C177.445 35.4971 177.129 34.9769 176.762 34.465L167.917 22.1045C167.534 22.1375 167.151 22.1706 166.768 22.2036C166.385 22.2201 165.993 22.2284 165.593 22.2284C165.127 22.2284 164.652 22.2118 164.169 22.1788C163.703 22.1458 163.228 22.088 162.745 22.0054V27.5788ZM162.745 20.0733C163.195 20.1724 163.653 20.2467 164.119 20.2963C164.586 20.3293 165.035 20.3458 165.468 20.3458C166.718 20.3458 167.859 20.1641 168.892 19.8008C169.924 19.421 170.799 18.8513 171.515 18.0917C172.248 17.332 172.814 16.3908 173.214 15.2678C173.614 14.1284 173.814 12.799 173.814 11.2798C173.814 10.0412 173.672 8.91832 173.389 7.91098C173.106 6.90365 172.681 6.05319 172.115 5.35962C171.565 4.64953 170.865 4.10458 170.016 3.72476C169.166 3.32843 168.175 3.13027 167.043 3.13027C165.893 3.13027 164.977 3.18806 164.294 3.30366C163.611 3.41926 163.095 3.54311 162.745 3.67522V20.0733ZM223.154 37.2641V37.165C223.187 37.0824 223.212 36.9586 223.229 36.7934C223.245 36.6283 223.254 36.4797 223.254 36.3476C223.254 35.8356 223.179 35.2742 223.029 34.6632C222.896 34.0357 222.629 33.2595 222.229 32.3347L219.206 25.5972C218.273 25.5641 217.032 25.5476 215.483 25.5476C213.934 25.5476 212.26 25.5476 210.461 25.5476C209.145 25.5476 207.87 25.5476 206.638 25.5476C205.422 25.5476 204.322 25.5641 203.339 25.5972L200.466 32.1366C200.216 32.7476 199.95 33.4164 199.666 34.143C199.383 34.8696 199.242 35.6045 199.242 36.3476C199.242 36.5622 199.258 36.7439 199.292 36.8925C199.325 37.0246 199.358 37.1155 199.392 37.165V37.2641H194.294V37.165C194.594 36.8512 194.969 36.298 195.419 35.5054C195.869 34.6962 196.36 33.6889 196.893 32.4834L211.21 1H213.209L226.777 31.2696C227.093 31.9797 227.418 32.6733 227.751 33.3503C228.101 34.0109 228.426 34.6054 228.726 35.1338C229.026 35.6623 229.292 36.1081 229.525 36.4714C229.758 36.8347 229.917 37.0659 230 37.165V37.2641H223.154ZM206.963 23.4173C207.929 23.4173 208.92 23.4173 209.936 23.4173C210.952 23.4008 211.943 23.3926 212.909 23.3926C213.892 23.3761 214.833 23.3678 215.733 23.3678C216.632 23.3513 217.448 23.3348 218.181 23.3183L211.16 7.58897L204.264 23.4173H206.963ZM82.9387 48.1076H83.2969L83.412 51.0246H82.9387C82.7511 50.2806 82.3886 49.6972 81.8513 49.2744C81.314 48.8517 80.6658 48.6403 79.9068 48.6403C79.3865 48.6403 78.9217 48.7418 78.5123 48.9447C78.1029 49.1476 77.7575 49.4393 77.4761 49.8198C77.1946 50.2003 76.9771 50.6653 76.8236 51.2149C76.6786 51.7644 76.6062 52.3859 76.6062 53.0792C76.6062 54.4404 76.8919 55.4889 77.4633 56.2244C78.0347 56.9516 78.862 57.3151 79.9451 57.3151C81.5912 57.3151 82.6487 56.4485 83.1178 54.7152H83.6423V57.8732H83.1946L82.9003 56.8713C82.0048 57.6238 80.9217 58 79.6509 58C78.926 58 78.2692 57.8859 77.6808 57.6576C77.1008 57.4293 76.6019 57.108 76.184 56.6937C75.7746 56.2709 75.4548 55.7594 75.2245 55.1591C75.0028 54.5588 74.8919 53.8909 74.8919 53.1553C74.8919 52.3859 75.0113 51.6841 75.2501 51.05C75.4889 50.4159 75.8215 49.8705 76.2479 49.4139C76.6829 48.9574 77.1989 48.6065 77.7959 48.3613C78.4014 48.1076 79.0667 47.9808 79.7916 47.9808C80.3033 47.9808 80.7852 48.0527 81.2372 48.1964C81.6892 48.3401 82.1797 48.5727 82.7084 48.894L82.9387 48.1076ZM91.4984 47.9808C92.2489 47.9808 92.9483 48.1119 93.5965 48.374C94.2447 48.6361 94.8076 48.9954 95.2852 49.452C95.7628 49.9086 96.138 50.4454 96.411 51.0627C96.6839 51.6799 96.8203 52.3478 96.8203 53.0665C96.8203 53.7514 96.6796 54.3939 96.3982 54.9942C96.1252 55.5946 95.75 56.1188 95.2724 56.5669C94.7948 57.0065 94.2319 57.3574 93.5837 57.6195C92.9355 57.8732 92.2404 58 91.4984 58C90.7564 58 90.0613 57.8732 89.4132 57.6195C88.765 57.3574 88.2021 57.0065 87.7245 56.5669C87.2469 56.1188 86.8673 55.5946 86.5859 54.9942C86.313 54.3939 86.1765 53.7514 86.1765 53.0665C86.1765 52.3478 86.313 51.6799 86.5859 51.0627C86.8588 50.4454 87.2341 49.9086 87.7117 49.452C88.1893 48.9954 88.7522 48.6361 89.4004 48.374C90.0485 48.1119 90.7479 47.9808 91.4984 47.9808ZM91.4984 57.3025C92.0613 57.3025 92.5645 57.2052 93.008 57.0108C93.46 56.8163 93.8438 56.5373 94.1594 56.1737C94.4835 55.8102 94.7308 55.3705 94.9014 54.8547C95.0719 54.3305 95.1572 53.7471 95.1572 53.1045C95.1572 52.4281 95.0719 51.8194 94.9014 51.2783C94.7308 50.7287 94.4877 50.2637 94.1722 49.8832C93.8566 49.4943 93.4728 49.1983 93.0208 48.9954C92.5688 48.784 92.0613 48.6783 91.4984 48.6783C90.9355 48.6783 90.4281 48.784 89.976 48.9954C89.524 49.1983 89.1402 49.4943 88.8247 49.8832C88.5091 50.2637 88.266 50.7287 88.0955 51.2783C87.9249 51.8194 87.8396 52.4281 87.8396 53.1045C87.8396 53.7471 87.9249 54.3305 88.0955 54.8547C88.266 55.3705 88.5091 55.8102 88.8247 56.1737C89.1402 56.5373 89.524 56.8163 89.976 57.0108C90.4281 57.2052 90.9355 57.3025 91.4984 57.3025ZM107.335 58L101.259 50.0607H101.207V55.4762C101.207 55.8989 101.22 56.2329 101.246 56.4781C101.28 56.7233 101.34 56.9135 101.425 57.0488C101.519 57.1841 101.647 57.2729 101.809 57.3151C101.979 57.3574 102.201 57.3828 102.474 57.3912V57.8732H99.0326V57.3912C99.3311 57.3828 99.5699 57.3574 99.749 57.3151C99.9366 57.2644 100.082 57.1756 100.184 57.0488C100.286 56.922 100.355 56.7444 100.389 56.5161C100.423 56.2794 100.44 55.9623 100.44 55.565V50.4159C100.44 50.0607 100.423 49.769 100.389 49.5408C100.363 49.304 100.303 49.118 100.21 48.9827C100.124 48.8475 99.9963 48.7544 99.8258 48.7037C99.6552 48.6445 99.4334 48.6065 99.1605 48.5896V48.1076H101.694L107.284 55.5015H107.335V50.5046C107.335 50.0903 107.318 49.7606 107.284 49.5154C107.259 49.2617 107.199 49.0673 107.105 48.932C107.02 48.7967 106.892 48.7079 106.721 48.6657C106.559 48.6234 106.342 48.598 106.069 48.5896V48.1076H109.51V48.5896C109.212 48.598 108.969 48.6276 108.781 48.6783C108.602 48.7206 108.461 48.8052 108.359 48.932C108.256 49.0588 108.188 49.2406 108.154 49.4773C108.12 49.7141 108.103 50.0269 108.103 50.4159V58H107.335ZM119.945 58L113.868 50.0607H113.817V55.4762C113.817 55.8989 113.83 56.2329 113.856 56.4781C113.89 56.7233 113.949 56.9135 114.035 57.0488C114.129 57.1841 114.256 57.2729 114.418 57.3151C114.589 57.3574 114.811 57.3828 115.084 57.3912V57.8732H111.642V57.3912C111.941 57.3828 112.18 57.3574 112.359 57.3151C112.546 57.2644 112.691 57.1756 112.794 57.0488C112.896 56.922 112.964 56.7444 112.998 56.5161C113.033 56.2794 113.05 55.9623 113.05 55.565V50.4159C113.05 50.0607 113.033 49.769 112.998 49.5408C112.973 49.304 112.913 49.118 112.819 48.9827C112.734 48.8475 112.606 48.7544 112.436 48.7037C112.265 48.6445 112.043 48.6065 111.77 48.5896V48.1076H114.303L119.894 55.5015H119.945V50.5046C119.945 50.0903 119.928 49.7606 119.894 49.5154C119.868 49.2617 119.809 49.0673 119.715 48.932C119.63 48.7967 119.502 48.7079 119.331 48.6657C119.169 48.6234 118.951 48.598 118.679 48.5896V48.1076H122.12V48.5896C121.821 48.598 121.578 48.6276 121.391 48.6783C121.212 48.7206 121.071 48.8052 120.969 48.932C120.866 49.0588 120.798 49.2406 120.764 49.4773C120.73 49.7141 120.713 50.0269 120.713 50.4159V58H119.945ZM127.003 52.5085C127.463 52.5085 127.847 52.4831 128.154 52.4324C128.47 52.3732 128.717 52.2844 128.896 52.166C129.084 52.0477 129.216 51.8955 129.293 51.7095C129.378 51.5235 129.421 51.3036 129.421 51.05H129.868V54.5123H129.421C129.421 54.2587 129.382 54.0388 129.305 53.8528C129.237 53.6668 129.109 53.5146 128.922 53.3962C128.743 53.2694 128.495 53.1764 128.18 53.1172C127.873 53.0496 127.48 53.0158 127.003 53.0158V55.882C127.003 56.161 127.037 56.3935 127.105 56.5796C127.173 56.7571 127.288 56.9051 127.45 57.0234C127.621 57.1334 127.843 57.2137 128.116 57.2644C128.389 57.3067 128.726 57.3278 129.126 57.3278C129.578 57.3278 129.962 57.2982 130.278 57.2391C130.593 57.1714 130.858 57.0615 131.071 56.9093C131.284 56.7571 131.455 56.5584 131.583 56.3132C131.711 56.0596 131.817 55.7467 131.902 55.3747H132.389L132.197 57.8732H124.252V57.3912C124.551 57.3828 124.79 57.3574 124.969 57.3151C125.156 57.2729 125.301 57.201 125.404 57.0995C125.506 56.9981 125.574 56.8543 125.608 56.6683C125.642 56.4823 125.659 56.2414 125.659 55.9454V50.0354C125.659 49.7395 125.642 49.5027 125.608 49.3252C125.583 49.1391 125.523 48.9954 125.429 48.894C125.344 48.784 125.216 48.7122 125.045 48.6783C124.875 48.6361 124.653 48.6065 124.38 48.5896V48.1076H131.775L131.89 50.3398H131.442C131.391 50.0016 131.305 49.7268 131.186 49.5154C131.075 49.2956 130.917 49.1222 130.713 48.9954C130.517 48.8686 130.265 48.7798 129.958 48.7291C129.651 48.6783 129.28 48.653 128.845 48.653H127.22C127.075 48.653 127.003 48.7249 127.003 48.8686V52.5085ZM142.839 48.1076H143.198L143.313 51.0246H142.839C142.652 50.2806 142.289 49.6972 141.752 49.2744C141.215 48.8517 140.567 48.6403 139.808 48.6403C139.287 48.6403 138.822 48.7418 138.413 48.9447C138.004 49.1476 137.658 49.4393 137.377 49.8198C137.095 50.2003 136.878 50.6653 136.724 51.2149C136.579 51.7644 136.507 52.3859 136.507 53.0792C136.507 54.4404 136.793 55.4889 137.364 56.2244C137.935 56.9516 138.763 57.3151 139.846 57.3151C141.492 57.3151 142.55 56.4485 143.019 54.7152H143.543V57.8732H143.095L142.801 56.8713C141.906 57.6238 140.822 58 139.552 58C138.827 58 138.17 57.8859 137.582 57.6576C137.002 57.4293 136.503 57.108 136.085 56.6937C135.675 56.2709 135.356 55.7594 135.125 55.1591C134.904 54.5588 134.793 53.8909 134.793 53.1553C134.793 52.3859 134.912 51.6841 135.151 51.05C135.39 50.4159 135.722 49.8705 136.149 49.4139C136.584 48.9574 137.1 48.6065 137.697 48.3613C138.302 48.1076 138.967 47.9808 139.692 47.9808C140.204 47.9808 140.686 48.0527 141.138 48.1964C141.59 48.3401 142.08 48.5727 142.609 48.894L142.839 48.1076ZM155.403 50.53H154.879C154.853 50.1664 154.794 49.862 154.7 49.6169C154.606 49.3717 154.47 49.1814 154.29 49.0461C154.12 48.9024 153.902 48.8009 153.638 48.7418C153.374 48.6826 153.058 48.653 152.691 48.653C152.376 48.653 152.12 48.6614 151.924 48.6783C151.736 48.6868 151.591 48.7079 151.489 48.7418C151.386 48.7756 151.318 48.8179 151.284 48.8686C151.258 48.9109 151.246 48.97 151.246 49.0461V55.8313C151.246 56.1019 151.263 56.3344 151.297 56.5288C151.339 56.7233 151.416 56.8839 151.527 57.0108C151.647 57.1291 151.813 57.2221 152.026 57.2898C152.248 57.349 152.538 57.3828 152.896 57.3912V57.8732H148.06V57.3912C148.418 57.3828 148.708 57.349 148.93 57.2898C149.152 57.2221 149.318 57.1291 149.429 57.0108C149.548 56.8839 149.625 56.7233 149.659 56.5288C149.702 56.3344 149.723 56.1019 149.723 55.8313V49.0461C149.723 48.97 149.706 48.9109 149.672 48.8686C149.647 48.8179 149.587 48.7756 149.493 48.7418C149.408 48.7079 149.284 48.6868 149.122 48.6783C148.96 48.6614 148.743 48.653 148.47 48.653C148.137 48.653 147.826 48.6657 147.536 48.691C147.254 48.7164 147.007 48.7925 146.794 48.9193C146.589 49.0377 146.423 49.2237 146.295 49.4773C146.167 49.731 146.099 50.0819 146.09 50.53H145.617V48.1076H155.275L155.403 50.53Z" stroke="#27395C"/>
</svg>
