<svg width="28" height="31" viewBox="0 0 28 31" fill="none" xmlns="http://www.w3.org/2000/svg">
<path opacity="0.78" fill-rule="evenodd" clip-rule="evenodd" d="M12.6309 9.80931C12.651 9.54881 12.8682 9.34766 13.1294 9.34766H13.5473C13.8041 9.34766 14.0192 9.5423 14.0448 9.7979L14.6664 16.0143L19.0812 18.537C19.237 18.626 19.3331 18.7917 19.3331 18.9712V19.3597C19.3331 19.6894 19.0196 19.9288 18.7015 19.8421L12.3984 18.123C12.167 18.0599 12.0131 17.8414 12.0315 17.6023L12.6309 9.80931Z" fill="#FF9066"/>
<path opacity="0.901274" fill-rule="evenodd" clip-rule="evenodd" d="M6.72176 0.984587C6.45765 0.669838 5.94771 0.790308 5.85238 1.18997L4.21891 8.03811C4.14123 8.36376 4.39931 8.67226 4.73356 8.65332L11.7783 8.2541C12.1892 8.23082 12.3976 7.74879 12.133 7.43351L10.3314 5.28637C11.4963 4.88827 12.7316 4.68034 14 4.68034C20.2592 4.68034 25.3333 9.75444 25.3333 16.0137C25.3333 22.2729 20.2592 27.347 14 27.347C7.74077 27.347 2.66667 22.2729 2.66667 16.0137C2.66667 14.9629 2.80896 13.9338 3.08641 12.9446L0.518845 12.2244C0.180793 13.4296 0 14.7005 0 16.0137C0 23.7457 6.26801 30.0137 14 30.0137C21.732 30.0137 28 23.7457 28 16.0137C28 8.28169 21.732 2.01367 14 2.01367C12.055 2.01367 10.2027 2.41029 8.5195 3.12705L6.72176 0.984587Z" fill="#FF9066"/>
</svg>
